<svg xmlns="http://www.w3.org/2000/svg" xml:space="preserve" width="2048" height="2048" style="shape-rendering:geometricPrecision;text-rendering:geometricPrecision;image-rendering:optimizeQuality;fill-rule:evenodd;clip-rule:evenodd"><defs><clipPath id="id0"><path d="M1024-.001c565.539 0 1024 458.462 1024 1024 0 565.539-458.462 1024-1024 1024-565.539 0-1024-458.462-1024-1024 0-565.54 458.462-1024 1024-1024z"/></clipPath><style>.fil6{fill:#4d2909}.fil5{fill:#57300f}.fil4{fill:#673b15}.fil7{fill:#7c4d24}.fil9{fill:#945823}.fil1{fill:#9fa8da}.fil3{fill:#f16767;fill-rule:nonzero}</style></defs><g id="Layer_x0020_1"><path d="M1024-.001c565.539 0 1024 458.462 1024 1024 0 565.539-458.462 1024-1024 1024-565.539 0-1024-458.462-1024-1024 0-565.54 458.462-1024 1024-1024z" style="fill:#c5cae9"/><g style="clip-path:url(#id0)"><g id="_289370120"><path id="_3062998321" class="fil1" d="M755.454 545.332 1891.33 1681.21v53.78L755.454 599.104z"/><path id="_306299160" class="fil1" d="M755.454 599.104 1891.33 1734.99h-18.67l-4.11.02-4.02.08-3.94.12-3.85.17-3.78.23-3.68.27-3.61.32-3.51.37-3.44.42-3.35.47-3.27.52-3.18.57-3.1.62-3.01.67-2.93.71-2.85.77-2.76.81-2.68.87-2.59.91-2.51.96-2.43 1.01-2.34 1.06-2.26 1.11-2.17 1.16-2.09 1.21-2.01 1.25-1.92 1.31-1.83 1.35-1.76 1.4-1.67 1.45-1.58 1.5-1.5 1.55L647.047 624.347l1.502-1.549 1.585-1.499 1.668-1.45 1.753-1.402 1.837-1.354 1.921-1.304 2.006-1.255 2.089-1.207 2.174-1.158 2.257-1.109 2.342-1.059 2.426-1.011 2.51-.962 2.593-.913 2.679-.864 2.762-.815 2.846-.765 2.93-.716 3.014-.668 3.099-.618 3.183-.569 3.267-.519 3.35-.47 3.435-.421 3.518-.372 3.604-.321 3.686-.273 3.771-.223 3.857-.174 3.939-.124 4.023-.074 4.107-.025z"/><path id="_306300528" class="fil1" d="M647.047 624.347 1782.93 1760.23l-1.44 1.62-1.39 1.73-1.34 1.84-1.3 1.93-1.26 2.05-1.2 2.14-1.17 2.25-1.11 2.36-1.08 2.46-1.02 2.56-.98 2.67-.94 2.78-.88 2.88-.85 2.98-.8 3.09-.75 3.19-.71 3.3-.66 3.41-.61 3.5-.57 3.62-.53 3.71-.47 3.83-.44 3.93-.38 4.03-.35 4.14-.29 4.24-.25 4.35-.21 4.45-.16 4.56-.11 4.67-.07 4.77-.02 4.87v122.93l-.02 5.27-.07 5.17-.1 5.08-.15 4.99-.2 4.88-.23 4.8-.28 4.69-.32 4.61-.36 4.5-.41 4.42-.44 4.31-.5 4.22-.53 4.13-.58 4.03-.62 3.94-.66 3.84-.71 3.74-.75 3.65-.79 3.56-.84 3.46-.87 3.36-.93 3.27-.96 3.18-1.01 3.07-1.05 2.99-1.1 2.89-1.14 2.79-1.18 2.7-1.22 2.6-1.27 2.51-1.32 2.41-1.35 2.32L601.747 972.564l1.356-2.317 1.312-2.412 1.27-2.507 1.225-2.604 1.182-2.697 1.139-2.794 1.096-2.887 1.051-2.984 1.009-3.079.966-3.174.921-3.269.879-3.365.836-3.459.793-3.555.75-3.65.706-3.745.662-3.841.621-3.936.577-4.031.535-4.125.491-4.223.448-4.316.406-4.412.363-4.507.32-4.603.278-4.697.234-4.793.192-4.888.149-4.984.106-5.077.064-5.175.021-5.269v-122.93l.023-4.875.068-4.77.115-4.664.159-4.559.204-4.454.252-4.349.297-4.243.341-4.138.387-4.034.434-3.928.478-3.823.524-3.718.57-3.613.616-3.508.661-3.404.706-3.298.752-3.193.799-3.089.843-2.984.889-2.879.935-2.774.98-2.67 1.025-2.565 1.071-2.46 1.118-2.357 1.162-2.251 1.208-2.146 1.254-2.042 1.3-1.938 1.345-1.833 1.39-1.729z"/><path id="_306300144" class="fil1" d="M601.747 972.564 1737.63 2108.45l-1.41 2.26-1.48 2.23-1.54 2.18-1.61 2.14-1.67 2.11-1.74 2.06-1.81 2.03-1.87 1.98-1.94 1.94-2 1.91-2.07 1.86-2.14 1.82-2.2 1.79-2.26 1.74-2.34 1.71-2.4 1.66-2.46 1.62-2.53 1.59-2.59 1.55-2.67 1.51-2.72 1.46-2.8 1.43-2.86 1.39-2.92 1.35-2.99 1.31-3.06 1.28-3.12 1.23-3.19 1.2-3.26 1.15-3.32 1.12-3.38 1.08-3.46 1.04L523.943 1025.3l3.453-1.04 3.386-1.08 3.32-1.12 3.254-1.16 3.189-1.19 3.123-1.24 3.056-1.27 2.992-1.31 2.925-1.35 2.859-1.39 2.795-1.43 2.727-1.47 2.662-1.5 2.596-1.55 2.53-1.59 2.464-1.62 2.398-1.67 2.333-1.7 2.267-1.746 2.2-1.784 2.136-1.824 2.069-1.862 2.003-1.904 1.938-1.943 1.871-1.983 1.806-2.025 1.74-2.063 1.675-2.104 1.608-2.143 1.542-2.185 1.477-2.225z"/><path id="_306300384" class="fil1" d="M584.677 1056.56 1720.56 2192.44l2 1.89 1.94 1.93 1.87 1.98 1.81 2.02 1.74 2.05 1.67 2.1 1.61 2.14 1.54 2.18 1.48 2.23 1.41 2.26L601.747 1077.34l-1.41-2.27-1.477-2.22-1.542-2.18-1.608-2.14-1.675-2.1-1.74-2.06-1.806-2.01-1.871-1.98-1.938-1.93z"/><path id="_306300024" class="fil1" d="M528.225 1077.92 1664.11 2213.8l-1.55-1.4-1.6-1.37-1.65-1.33-1.69-1.29-1.74-1.26-1.79-1.22-1.83-1.19-1.89-1.14-1.93-1.12-1.98-1.07-2.02-1.04-2.08-1-2.12-.96-2.17-.93-2.21-.89-2.27-.86-2.31-.82-2.35-.78-2.41-.74-2.45-.71-2.5-.67-2.55-.63-2.59-.6-2.64-.56-2.69-.52-2.73-.49-2.79-.45-2.82-.41-2.88-.38L463.999 1052.09l2.876.38 2.829.41 2.781.45 2.735.48 2.689.53 2.639.56 2.594.59 2.547.64 2.5.67 2.452.71 2.405.74 2.357.78 2.31.82 2.263.85 2.216.89 2.169.93 2.121.97 2.073 1 2.026 1.04 1.979 1.07 1.931 1.11 1.884 1.15 1.835 1.19 1.788 1.22 1.741 1.25 1.693 1.3 1.645 1.33 1.598 1.37z"/><path id="_306300360" class="fil1" d="M601.747 1077.34 1737.63 2213.22l1.35 2.32 1.32 2.41 1.27 2.51 1.22 2.6 1.18 2.7 1.14 2.79 1.1 2.89 1.05 2.99 1.01 3.08.96 3.17.93 3.27.87 3.37.84 3.46.79 3.56.75 3.65.71 3.75.66 3.85.62 3.94.58 4.03.53 4.14.5 4.22.44 4.33.41 4.42.36 4.51.32 4.62.28 4.7.23 4.81.2 4.9.15 4.99.1 5.1.07 5.19.02 5.28v122.24l.02 4.86.06 4.75.12 4.65.15 4.55.2 4.44.25 4.34.29 4.23.33 4.13.38 4.02.43 3.92.46 3.82.52 3.71.55 3.61.61 3.5.64 3.4.69 3.29.74 3.19.78 3.09.82 2.98.87 2.88.92 2.77.95 2.67 1.01 2.56 1.04 2.46 1.1 2.36 1.13 2.25 1.18 2.14 1.23 2.04 1.27 1.94 1.32 1.83 1.35 1.73 1.41 1.63L646.528 1424.87l-1.405-1.63-1.359-1.73-1.315-1.83-1.271-1.94-1.226-2.04-1.181-2.15-1.136-2.25-1.092-2.35-1.048-2.46-1.003-2.57-.958-2.66-.914-2.78-.869-2.87-.825-2.98-.78-3.09-.735-3.19-.691-3.29-.646-3.4-.602-3.5-.558-3.61-.512-3.71-.468-3.82-.424-3.92-.378-4.02-.334-4.13-.291-4.23-.244-4.34-.201-4.44-.156-4.55-.112-4.65-.066-4.76-.023-4.85v-122.24l-.021-5.29-.064-5.19-.106-5.09-.149-4.99-.192-4.91-.234-4.8-.278-4.71-.32-4.61-.363-4.51-.406-4.42-.448-4.33-.491-4.23-.535-4.13-.577-4.03-.621-3.95-.662-3.84-.706-3.75-.75-3.65-.793-3.56-.836-3.46-.879-3.37-.921-3.27-.966-3.18-1.009-3.08-1.051-2.98-1.096-2.89-1.139-2.79-1.182-2.7-1.225-2.6-1.27-2.51-1.312-2.41z"/><path id="_306299976" class="fil1" d="M755.454 1448.9 1891.33 2584.78v53.77L755.454 1502.67z"/><path id="_306300072" class="fil1" d="M646.528 1424.87 1782.41 2560.75l1.46 1.53 1.55 1.48 1.62 1.44L651.162 1429.32l-1.624-1.44-1.545-1.48z"/><path id="_306300552" class="fil1" d="M755.454 1502.67 1891.33 2638.55h-23.85l-6.17-.03-6.03-.11-5.92-.18-5.78-.25-5.67-.33-5.53-.39-5.42-.47-5.28-.54-5.17-.61-5.03-.68-4.91-.75-4.79-.83-4.66-.89-4.53-.97-4.41-1.04-4.28-1.11-4.15-1.19-4.03-1.25-3.91-1.33-3.77-1.39-3.65-1.47-3.53-1.54-3.39-1.61-3.27-1.68-3.15-1.75-3.01-1.83-2.89-1.89-2.76-1.97-2.64-2.04-2.5-2.1L601.365 1470.44l2.507 2.11 2.635 2.04 2.762 1.97 2.889 1.89 3.015 1.82 3.143 1.76 3.27 1.68 3.396 1.61 3.523 1.54 3.651 1.47 3.776 1.39 3.902 1.33 4.03 1.25 4.155 1.18 4.282 1.12 4.408 1.03 4.533.97 4.659.9 4.785.82 4.911.76 5.036.68 5.162.61 5.287.54 5.412.47 5.538.39 5.663.32 5.787.26 5.913.18 6.037.1 6.162.04z"/><path id="_306300600" class="fil1" d="M1400.95 624.347 2536.83 1760.23l-1.5-1.55-1.58-1.5-1.67-1.45-1.75-1.4-1.84-1.35-1.92-1.31-2.01-1.25-2.09-1.21-2.17-1.16-2.26-1.11-2.34-1.06-2.43-1.01-2.51-.96-2.59-.91-2.68-.87-2.76-.81-2.85-.77-2.93-.71-3.01-.67-3.1-.62-3.18-.57-3.27-.52-3.35-.47-3.43-.42-3.52-.37-3.61-.32-3.68-.27-3.77-.23-3.86-.17-3.94-.12-4.02-.08-4.11-.02h-18.67L1292.55 599.104h18.67l4.11.025 4.02.074 3.94.124 3.86.174 3.77.223 3.68.273 3.61.321 3.52.372 3.43.421 3.35.47 3.27.519 3.18.569 3.1.618 3.01.668 2.93.716 2.85.765 2.76.815 2.68.864 2.59.913 2.51.962 2.43 1.011 2.34 1.059 2.26 1.109 2.17 1.158 2.09 1.207 2.01 1.255 1.92 1.304 1.83 1.354 1.76 1.402 1.67 1.45 1.58 1.499z"/><path id="_306301320" class="fil1" d="M1402.39 625.971 2538.27 1761.85l-1.44-1.62L1400.95 624.347z"/><path id="_306300960" class="fil1" d="M1264.71 724.151 2400.59 1860.03l-8.95-1.4-8.91-.95-8.87-.48-8.81-.04-8.74.4-8.65.84-8.55 1.25-8.44 1.66-8.32 2.07-8.17 2.47-8.03 2.84-7.86 3.23-7.69 3.59-7.5 3.95-7.29 4.3-7.08 4.64-6.85 4.97-6.61 5.29-6.35 5.61-6.09 5.91-5.8 6.21-5.51 6.49-5.21 6.78-4.88 7.04-4.55 7.3-4.21 7.55-3.85 7.79-3.48 8.02-3.09 8.25-2.69 8.47-2.29 8.67-1.86 8.87-.04.22-.05.22-.06.21-.07.21-.08.21-.08.2-.09.2-.1.19L1058.96 867.398l.1-.194.09-.199.08-.202.08-.206.07-.211.06-.213.05-.218.04-.222 1.86-8.866 2.29-8.671 2.69-8.463 3.09-8.25 3.48-8.025 3.85-7.793 4.2-7.551 4.56-7.3 4.88-7.041 5.21-6.771 5.51-6.494 5.8-6.207 6.09-5.912 6.35-5.608 6.61-5.293 6.85-4.972 7.08-4.639 7.29-4.299 7.5-3.95 7.68-3.592 7.87-3.224 8.02-2.849 8.18-2.462 8.32-2.069 8.44-1.665 8.55-1.253 8.65-.833 8.74-.401 8.81.036 8.87.485 8.91.942z"/><path id="_306300672" class="fil1" d="M2329.72 2057.28zM1193.84 921.4z"/><path id="_306300792" class="fil1" d="M907.99 913.872 2043.87 2049.75l-9.3 3.39L898.686 917.26z"/><path id="_306300840" class="fil1" d="m1524.06 1025.3 1135.88 1135.88-3.45-1.04-3.39-1.08-3.32-1.12-3.25-1.15-3.19-1.2-3.13-1.23-3.05-1.28-2.99-1.31-2.93-1.35-2.86-1.39-2.79-1.43-2.73-1.46-2.66-1.51-2.6-1.55-2.53-1.59-2.46-1.62-2.4-1.66-2.33-1.71-2.27-1.74-2.2-1.79-2.14-1.82-2.07-1.86-2-1.91-1.94-1.94-1.87-1.98L1457.51 987.574l1.87 1.983 1.94 1.943 2 1.904 2.07 1.862 2.14 1.824 2.2 1.784 2.26 1.746 2.34 1.7 2.4 1.67 2.46 1.62 2.53 1.59 2.6 1.55 2.66 1.5 2.73 1.47 2.79 1.43 2.86 1.39 2.92 1.35 3 1.31 3.05 1.27 3.13 1.24 3.18 1.19 3.26 1.16 3.32 1.12 3.38 1.08z"/><path id="_306300744" class="fil1" d="M1270.15 714.237 2406.03 1850.12l.67.89.47 1 .26 1.06.08 1.1-.11 1.1-.29 1.07-.46 1-.63.9-.79.77-.94.59-1.09.39-1.24.16-1.37-.12L1264.71 724.151l1.37.116 1.24-.155 1.09-.393.94-.596.79-.765.63-.9.46-1.002.29-1.067.11-1.101-.08-1.1-.26-1.065-.47-.994z"/><path id="_306300888" class="fil1" d="M1453.28 585.259 2589.16 1721.14l2.12 2.56 2.04 2.71 1.98 2.85 1.91 3 1.83 3.16 1.77 3.3 1.7 3.44 1.62 3.6 1.56 3.74 1.49 3.9 1.42 4.04 1.35 4.18 1.28 4.34 1.21 4.49 1.14 4.63 1.07 4.77 1 4.93.94 5.07.86 5.22.79 5.37.73 5.51.66 5.67.58 5.8.52 5.96.45 6.1.38 6.25.31 6.39.24 6.54.17 6.68.1 6.84.04 6.97v123.11l.03 4.83.08 4.75.14 4.65.2 4.57.26 4.48.31 4.39.37 4.29.42 4.21.48 4.12.54 4.03.59 3.95.65 3.85.71 3.76.76 3.67.82 3.58.88 3.5.93 3.4.99 3.32 1.04 3.22 1.1 3.13 1.16 3.05 1.21 2.95 1.27 2.87 1.33 2.78 1.38 2.68 1.43 2.6 1.49 2.5 1.55 2.42 1.61 2.32 1.66 2.24 1.71 2.14 1.77 2.06L1515.41 966.685l-1.77-2.056-1.71-2.144-1.67-2.236-1.6-2.325-1.55-2.415-1.49-2.506-1.44-2.595-1.38-2.685-1.32-2.775-1.27-2.866-1.21-2.955-1.16-3.045-1.1-3.133-1.04-3.225-.99-3.314-.93-3.404-.88-3.493-.82-3.583-.76-3.673-.71-3.762-.65-3.851-.59-3.942-.54-4.03-.48-4.121-.42-4.209-.37-4.298-.31-4.389-.26-4.478-.2-4.566-.14-4.656-.08-4.745-.03-4.835V733.273l-.04-6.978-.1-6.833-.17-6.686-.24-6.54-.31-6.393-.38-6.247-.45-6.102-.52-5.954-.59-5.807-.65-5.661-.73-5.514-.79-5.368-.86-5.219-.94-5.073-1-4.926-1.07-4.779-1.14-4.63-1.21-4.483-1.28-4.337-1.35-4.189-1.42-4.039-1.49-3.893-1.56-3.745-1.62-3.597-1.7-3.447-1.77-3.3-1.84-3.153-1.9-3.002-1.98-2.855-2.04-2.707z"/><path id="_306300768" class="fil1" d="M2362.12 2046.61zM1226.24 910.73z"/><path id="_306301032" class="fil1" d="M2366.94 2058.79zM1231.06 922.91z"/><path id="_306301056" class="fil1" d="M2332.94 2070.09zM1197.06 934.21z"/><path id="_306301272" class="fil1" d="M940.978 774.301 2076.86 1910.18l-6.09-5.91-6.35-5.61-6.61-5.29-6.85-4.97-7.08-4.64-7.29-4.3-7.5-3.95-7.68-3.59-7.87-3.23-8.02-2.84-8.18-2.47-8.32-2.07-8.44-1.66-8.55-1.25-8.65-.84-8.74-.4-8.81.04-8.87.48-8.91.95-8.95 1.4-1.37.12-1.24-.16-1.09-.39-.94-.59-.79-.77L777.787 722.358l.789.765.944.596 1.092.393 1.233.155 1.371-.116 8.95-1.408 8.916-.942 8.869-.485 8.81-.036 8.736.401 8.651.833 8.552 1.253 8.44 1.665 8.317 2.069 8.178 2.462 8.026 2.849 7.864 3.224 7.687 3.592 7.496 3.95 7.295 4.299 7.078 4.639 6.849 4.972 6.609 5.293 6.353 5.608z"/><path id="_306301896" class="fil1" d="M988.79 876.72 2124.67 2012.6l.04.04L988.827 876.761z"/><path id="_306302088" class="fil1" d="M2070.13 2068.04zM934.25 932.16z"/><path id="_306302184" class="fil1" d="M916.463 902.176 2052.34 2038.06l.69.87.54 1.01.39 1.14L918.074 905.194l-.387-1.14-.541-1.007z"/><path id="_306302064" class="fil1" d="M2060.09 2072.15zM924.21 936.27z"/><path id="_306301632" class="fil1" d="M850.445 916.83 1986.33 2052.71l1.02 1.06.92 1.12.89 1.13.92 1.08L854.195 921.218l-.914-1.077-.889-1.132-.925-1.123z"/><path id="_306301872" class="fil1" d="M898.686 917.26 2034.57 2053.14l-.6.25-.76.32-.91.39-1.06.46-1.19.52-1.31.57-1.43.62-1.53.67-1.62.69-1.7.73-1.77.75-1.83.77-1.87.78-1.92.78-1.94.79-1.95.78-1.96.76-1.96.75-1.94.72-1.91.7-1.87.65-1.83.62-1.76.57-1.7.51-1.61.45-1.53.39-1.42.31-1.31.23-1.19.15-1.05.07-.9-.04-.75-.14L850.605 933.83l.751.138.906.035 1.051-.061 1.186-.151 1.31-.235 1.422-.313 1.523-.386 1.616-.452 1.696-.512 1.766-.566 1.825-.615 1.874-.657 1.911-.693 1.939-.724 1.955-.748 1.961-.766 1.954-.779 1.941-.784 1.913-.785 1.876-.78 1.828-.769 1.77-.75 1.699-.726 1.62-.698 1.529-.662 1.427-.62 1.316-.571 1.191-.52 1.059-.46.914-.393.759-.322z"/><path id="_306301464" class="fil1" d="M842.383 927.556 1978.26 2063.44l-1.51-.07-1.6-.11-1.65-.16-1.7-.2-1.74-.23-1.76-.27-1.76-.3-1.76-.33-1.75-.36-1.71-.38-1.66-.4-1.61-.42-1.54-.44-1.45-.45-1.35-.46-1.24-.47L816.586 922.508l1.242.469 1.352.46 1.452.452 1.535.437 1.608.421 1.666.403 1.71.38 1.744.358 1.761.331 1.767.301 1.757.268 1.738.234 1.702.197 1.653.156 1.592.114z"/><path id="_306302160" class="fil1" d="M2242.87 2392.06zM1106.99 1256.18z"/><path id="_306302016" class="fil1" d="M2030.49 2154.01zM894.61 1018.13z"/><path id="_306301992" class="fil1" d="M811.707 1323.22 1947.59 2459.1l-2.61 1.19L809.095 1324.4z"/><path id="_306301680" class="fil1" d="M837.108 1311.47 1972.99 2447.35l-1.34.96-1.43.95-1.49.93-1.55.9-1.61.88-1.64.84-1.67.82-1.7.78-1.7.74-1.69.71-1.69.66-1.66.62-1.63.57-1.59.52-1.54.47-1.47.42L811.712 1323.24l1.471-.42 1.533-.47 1.588-.52 1.63-.57 1.664-.62 1.687-.66 1.698-.71 1.7-.74 1.692-.78 1.673-.82 1.644-.85 1.604-.87 1.553-.9 1.494-.93 1.423-.95z"/><path id="_306302928" class="fil1" d="M827.782 1129 1963.66 2264.89l-1.19.57-1.24.56-1.28.55-1.3.54-1.34.52-1.34.5-1.36.49-1.37.47-1.37.44-1.36.43-1.35.39-1.33.38-1.31.34-1.28.31-1.24.28-1.2.25L806.917 1136.03l1.2-.25 1.241-.28 1.279-.31 1.308-.35 1.332-.37 1.35-.4 1.362-.42 1.368-.44 1.367-.47 1.361-.49 1.349-.51 1.331-.52 1.306-.53 1.276-.55 1.239-.56z"/><path id="_306302304" class="fil1" d="M873.407 1045.23 2009.29 2181.11l-1.05 1.69-1.01 1.91-.99 2.12-.96 2.31-.94 2.49-.93 2.65-.91 2.79-.9 2.91-.89 3.03-.9 3.12-.88 3.19-.9 3.25-.89 3.3-.91 3.32-.92 3.33-.94 3.33-.95 3.3-.98 3.26-1 3.2-1.04 3.13-1.06 3.04-1.1 2.94-1.14 2.81-1.18 2.67-1.23 2.51-1.27 2.34-1.33 2.15-1.38 1.95-1.45 1.72-1.5 1.48-1.57 1.22-1.64.96-1.31.54-1.35.39-1.36.24-1.39.1-1.38-.04-1.38-.17-1.37-.3-1.35-.4L827.782 1129l1.345.41 1.368.3 1.382.16 1.385.04 1.382-.09 1.369-.24 1.344-.39 1.313-.55 1.638-.95 1.569-1.22 1.505-1.48 1.442-1.73 1.383-1.94 1.329-2.15 1.276-2.34 1.227-2.51 1.181-2.67 1.14-2.81 1.099-2.94 1.064-3.04 1.033-3.13 1.004-3.2.976-3.26.956-3.3.935-3.33.921-3.33.907-3.32.897-3.3.892-3.25.889-3.2.891-3.11.894-3.03.901-2.91.912-2.79.925-2.65.943-2.49.963-2.31.987-2.12 1.014-1.92z"/><path id="_306302688" class="fil1" d="M1144.92 1181.51 2280.8 2317.39h-.02L1144.9 1181.5z"/><path id="_306302568" class="fil1" d="M934.693 932.257 2070.57 2068.14l-1.7-.89-1.75-.88-1.78-.89-1.81-.91-1.82-.93-1.82-.96-1.81-.99-1.79-1.05-1.77-1.09-1.72-1.16-1.68-1.22-1.61-1.3-1.54-1.38L912.086 918.603l1.542 1.384 1.615 1.301 1.675 1.223 1.724 1.157 1.765 1.095 1.794 1.041 1.813.997 1.82.958 1.819.93 1.806.905 1.782.892 1.748.885z"/><path id="_306302328" class="fil1" d="M2095.52 2052.64zM959.64 916.76z"/><path id="_306302856" class="fil1" d="M948.092 764.698 2083.97 1900.58l6.2 6.49 5.89 6.79 5.57 7.08 5.24 7.37 4.9 7.64 4.54 7.91 4.17 8.16 3.78 8.4 3.39 8.64 2.97 8.87 2.55 9.09 2.11 9.3L999.402 860.435l-2.111-9.297-2.55-9.088-2.976-8.869-3.386-8.643-3.784-8.405-4.169-8.16-4.539-7.904-4.898-7.641-5.242-7.366-5.571-7.083-5.891-6.792z"/><path id="_306302280" class="fil1" d="M1250.96 911.385 2386.84 2047.27l.66 1.04.44 1.14.2 1.2-.01 1.22-.21 1.2-.41 1.16-.59 1.07-.77.94-.94.77-1.09.58-1.24.34-1.38.07-1.5-.24L1244.12 921.875l1.5.243 1.38-.067 1.24-.342 1.09-.577.94-.779.77-.94.59-1.066.41-1.155.21-1.207.01-1.221-.21-1.198-.43-1.139z"/><path id="_306302424" class="fil1" d="M1244.12 921.875 2380 2057.76l-.77-.19-.8-.15-.8-.11-.82-.08-.83-.04-.83-.01-.83.02-.84.06-.84.09-.84.12-.83.15-.83.17-.82.21-.81.24-.79.26-.78.29L1231.05 922.909l.79-.29.79-.264.81-.236.82-.208.83-.178.83-.149.84-.118.84-.087.84-.057.83-.024.83.01.83.043.81.078.81.113.79.148z"/><path id="_306302520" class="fil1" d="M1231.05 922.909 2366.94 2058.79l-1.2.47-1.32.45-1.44.45-1.53.44-1.61.42-1.67.4-1.73.38-1.75.36-1.78.33-1.79.3-1.77.27-1.75.24-1.7.2-1.65.16-1.58.11-1.49.07L1205.3 927.959l1.49-.069 1.58-.116 1.65-.158 1.7-.198 1.75-.237 1.77-.27 1.79-.302 1.77-.332 1.76-.358 1.73-.383 1.67-.401 1.61-.421 1.53-.436 1.43-.447 1.33-.457z"/><path id="_306302640" class="fil1" d="M1202.48 931.22 2338.36 2067.1l-.58.5-.61.46-.65.43-.68.4-.69.36-.72.33-.74.28-.75.23L1197.06 934.208l.75-.235.74-.28.72-.323.69-.361.68-.399.65-.433.61-.464z"/><path id="_306303648" class="fil1" d="M1205.3 927.959 2341.18 2063.84l-.31.46-.32.44-.33.43-.34.42-.36.4-.37.39-.38.38-.39.35L1202.5 931.233l.39-.359.38-.376.37-.39.36-.404.34-.417.33-.431.32-.443z"/><path id="_306303504" class="fil1" d="M1197.06 934.208 2332.94 2070.09l-.73.13-.88.04-1.03-.06-1.17-.15-1.28-.23-1.39-.3-1.5-.38-1.59-.44-1.67-.5-1.73-.56-1.8-.6-1.85-.65-1.89-.68-1.91-.71-1.94-.74-1.94-.75-1.94-.77-1.93-.78-1.9-.78-1.88-.77-1.82-.76-1.78-.75-1.71-.73-1.63-.7-1.56-.66-1.45-.63-1.35-.59-1.23-.53-1.11-.48-.97-.41-.83-.35-.66-.27L1149.01 917.666l.66.274.83.348.97.414 1.1.477 1.24.533 1.35.584 1.45.627 1.55.667 1.64.699 1.71.727 1.77.748 1.83.763 1.87.774 1.91.778 1.93.776 1.94.769 1.94.756 1.94.737 1.91.712 1.89.682 1.85.645 1.79.602 1.74.556 1.67.501 1.59.443 1.49.377 1.4.307 1.28.229 1.16.148 1.03.059.89-.036z"/><path id="_306303576" class="fil1" d="M1149.01 917.666 2284.89 2053.55l-9.3-3.41L1139.71 914.263z"/><path id="_306303144" class="fil1" d="M1058.96 867.398 2194.84 2003.28l.72 1.1.41 1.12.15 1.13-.05 1.15-.2 1.17-.31 1.17-.35 1.18-.36 1.19L1058.96 876.605l.36-1.185.36-1.182.31-1.174.2-1.163.05-1.152-.15-1.135-.41-1.118z"/><path id="_306303000" class="fil1" d="M1059.04 876.572 2194.92 2012.45l.78 1.08.6 1.06.45 1.06.31 1.06.21 1.08.11 1.09.06 1.13.01 1.17-.01 1.21v1.28l.03 1.34.07 1.41.15 1.5.25 1.6.36 1.69.5 1.81L1062.92 897.138l-.51-1.809-.36-1.696-.24-1.593-.15-1.501-.07-1.415-.03-1.341v-1.273l.01-1.216-.01-1.167-.06-1.127-.12-1.096-.2-1.075-.31-1.061-.45-1.058-.6-1.062z"/><path id="_306303216" class="fil1" d="M2198.79 2033.03zM1062.91 897.15z"/><path id="_306303168" class="fil1" d="M1004.58 862.086 2140.46 1997.97l.77.92.59 1.01.39 1.05L1006.33 865.065l-.39-1.047-.6-1.008z"/><path id="_306303264" class="fil1" d="m1152.96 1031.97 1135.88 1135.88-.13.97-1135.89-1135.89z"/><path id="_306303384" class="fil1" d="M1152.68 1046.12 2288.56 2182l-.2 41.52-1135.88-1135.88z"/><path id="_306303480" class="fil1" d="M1006.33 865.065 2142.21 2000.95l.12.47.12.48.12.47.12.46.11.46.12.46.1.45.11.44L1007.25 868.758l-.11-.445-.11-.45-.11-.455-.11-.459-.12-.464-.12-.469-.12-.474z"/><path id="_306303696" class="fil1" d="M1007.36 868.113 2143.24 2004l-.09-.08L1007.27 868.041z"/><path id="_306304032" class="fil1" d="M1153.27 997.315 2289.15 2133.2l.02 1.19.01 1.45V2139.4l-.01 2.05-.02 2.21-.02 2.33-.02 2.42-.03 2.48-.03 2.53-.04 2.53-.03 2.52-.03 2.48-.04 2.41-.03 2.31-.04 2.18-1135.88-1135.88.04-2.19.03-2.31.03-2.4.04-2.48.03-2.52.04-2.54.03-2.52.02-2.49.03-2.42.02-2.32.01-2.21.02-2.06V999.955l-.02-1.449z"/><path id="_306304440" class="fil1" d="M1220.21 1129.52 2356.09 2265.4l-1.35.41-1.36.29-1.39.17-1.38.04-1.38-.1-1.37-.24-1.35-.39-1.31-.54-1135.88-1135.88 1.31.54 1.35.39 1.36.24 1.39.1 1.38-.04 1.39-.17 1.36-.3z"/><path id="_306303768" class="fil1" d="M1209.32 1129.16 2345.2 2265.04l-1.64-.95-1.57-1.23-1.5-1.48L1204.61 1125.5l1.5 1.48 1.57 1.23z"/><path id="_306304296" class="fil1" d="M2306.84 2168.96zM1170.96 1033.08z"/><path id="_306303816" class="fil1" d="m1174.59 1045.74 1135.88 1135.88-1.11.32-1.18.26-1.24.22-1.29.16-1.34.12-1.38.08-1.41.04-1.44.01-1.45-.03-1.47-.06-1.47-.08-1.46-.1-1.46-.12-1.43-.14-1.41-.14-1.37-.16-1135.88-1135.88 1.37.15 1.41.15 1.43.14 1.45.12 1.47.1 1.47.08 1.46.06 1.46.02h1.44l1.41-.04 1.38-.08 1.34-.12 1.29-.17 1.24-.21 1.18-.26z"/><path id="_306304248" class="fil1" d="M918.074 905.194 2053.96 2041.08l.19.5.34.58.46.63.57.67.64.69L920.279 908.27l-.645-.691-.564-.67-.462-.632-.339-.577z"/><path id="_306304104" class="fil1" d="m1152.48 1087.64 1135.88 1135.88.06 1.47.04 1.58.03 1.68.01 1.77-.01 1.86-.02 1.93-.04 2.01-.05 2.08-.06 2.13-.07 2.18-.08 2.24-.1 2.26-.1 2.3-.11 2.33-.12 2.34-.12 2.35-.14 2.36-.14 2.36-.14 2.34-.14 2.33-.15 2.3-.15 2.28-.16 2.24-.15 2.19-.16 2.14-.15 2.09-.15 2.02-.15 1.95-.15 1.87-.14 1.79-.14 1.69-.14 1.6L1149.39 1153.7l.14-1.6.13-1.69.15-1.79.15-1.87.15-1.95.15-2.02.15-2.09.16-2.14.15-2.2.15-2.23.16-2.28.15-2.3.14-2.33.14-2.35.14-2.35.13-2.36.13-2.35.12-2.34.11-2.33.1-2.3.1-2.27.08-2.23.07-2.18.06-2.14.05-2.07.04-2.01.02-1.94.01-1.85-.01-1.77-.03-1.68-.04-1.58z"/><path id="_306304392" class="fil1" d="M1149.36 1153.82 2285.24 2289.7l-.06.05L1149.3 1153.87z"/><path id="_306304344" class="fil1" d="m1149.3 1153.87 1135.88 1135.88-.05.06-1135.88-1135.88z"/><path id="_306303960" class="fil1" d="m1184.48 1160.3 1135.88 1135.89 1.03 1.26.8 1.47-1135.88-1135.88-.8-1.47z"/><path id="_306304800" class="fil1" d="m1144.9 1181.5 1135.88 1135.89-.62 2.15-.83 2.02-.94 1.85-.97 1.64-.91 1.38-.77 1.1-.54.77-.23.4-1135.88-1135.88.23-.4.54-.77.77-1.1.91-1.38.97-1.64.94-1.85.83-2.02z"/><path id="_306304512" class="fil1" d="M850.605 933.83 1986.49 2069.71l-1.27-.43-1.2-.55-1.14-.66-1.07-.75-1-.86L844.928 930.582l.999.851 1.071.759 1.137.658 1.203.549z"/><path id="_306304944" class="fil1" d="m1147.56 1167.04 1135.88 1135.88.02.03-1135.88-1135.88z"/><path id="_306304896" class="fil1" d="M2322.18 2298.92zM1186.3 1163.04z"/><path id="_306305064" class="fil1" d="m1149.6 1153.75 1135.88 1135.88-.24.07-1135.88-1135.88z"/><path id="_306305088" class="fil1" d="m1128.39 1222.34 1135.88 1135.88-.76.93-.77.77-.76.64-.75.53-.75.42-.74.35-.73.28-.72.24L1122.41 1226.5l.72-.24.73-.28.74-.35.74-.43.76-.52.76-.64.77-.77z"/><path id="_306305136" class="fil1" d="M816.586 922.508 1952.47 2058.39l-.75-.28-.78-.26-.79-.24-.8-.2-.82-.18-.83-.15-.83-.12-.84-.09-.84-.05-.84-.03-.84.01-.84.04-.82.08-.82.11-.8.16-.78.18L803.566 921.491l.785-.188.802-.151.815-.113.825-.078.834-.043.838-.008.841.023.841.058.84.089.835.118.827.15.817.177.805.206.791.233.772.259z"/><path id="_306305160" class="fil1" d="M1139.09 1192.82 2274.97 2328.7l-.3 1.52-.35 1.65-.39 1.76-.44 1.85-.49 1.94-.53 1.98-.59 2.03-.63 2.05-.69 2.04-.74 2.02-.79 1.99-.84 1.93-.9 1.85-.95 1.76-1.01 1.64-1.06 1.51-1135.88-1135.88 1.06-1.51 1.01-1.64.95-1.76.9-1.85.84-1.93.79-1.99.74-2.02.68-2.05.64-2.04.59-2.03.53-1.99.49-1.93.44-1.85.39-1.77.35-1.64z"/><path id="_306305232" class="fil1" d="M1175.52 1171.37 2311.4 2307.25l-1.45.08-1.52.01-1.58-.05-1.63-.11-1.68-.17-1.72-.21-1.76-.26-1.79-.29-1.82-.34-1.83-.36-1.86-.4-1.86-.41-1.87-.44-1.87-.45-1.86-.46-1.86-.47-1135.88-1135.88 1.86.47 1.86.46 1.87.45 1.87.43 1.86.42 1.86.39 1.83.37 1.82.33 1.79.3 1.76.26 1.72.21 1.67.17 1.64.11 1.57.05 1.53-.01z"/><path id="_306305208" class="fil1" d="M2311.51 2294.02zM1175.63 1158.14z"/><path id="_306304632" class="fil1" d="m1147.78 1167.23 1135.88 1135.88-2.86 14.28-1135.88-1135.88z"/><path id="_306305520" class="fil1" d="m1186.31 1163.04 1135.88 1135.88.81 1.99.8 2.11.77 2.22.76 2.34.75 2.44.73 2.53.71 2.62.7 2.7.69 2.78.66 2.84.66 2.9.64 2.96.62 3 .61 3.04.6 3.07.58 3.09.57 3.12.55 3.12.55 3.13.52 3.12.52 3.11.5 3.1.5 3.07.47 3.04.47 3 .45 2.96.45 2.9.43 2.84.42 2.78.41 2.7.4 2.62.38 2.53.19 1.28.16 1.32.14 1.36.13 1.4.12 1.43.11 1.47.09 1.49.09 1.51.08 1.53.09 1.54.07 1.56.08 1.56.09 1.57.09 1.57.09 1.56.1 1.56.12 1.54.13 1.53.14 1.51.16 1.49.18 1.46.2 1.43.22 1.4.25 1.36.28 1.33.31 1.27.33 1.23.37 1.17.41 1.12.44 1.06.48 1 .53.93-1135.88-1135.89-.53-.93-.48-.99-.44-1.06-.41-1.12-.37-1.17-.34-1.23-.3-1.28-.28-1.32-.25-1.36-.22-1.4-.2-1.43-.18-1.46-.16-1.49-.14-1.51-.13-1.53-.12-1.55-.1-1.55-.1-1.57-.08-1.56-.09-1.57-.08-1.56-.08-1.56-.08-1.54-.08-1.53-.09-1.52-.1-1.48-.1-1.47-.12-1.43-.13-1.4-.14-1.36-.17-1.33-.18-1.27-.39-2.53-.39-2.63-.41-2.7-.42-2.77-.43-2.84-.45-2.91-.45-2.95-.47-3-.48-3.04-.49-3.07-.5-3.1-.52-3.11-.53-3.12-.54-3.13-.55-3.13-.57-3.11-.58-3.1-.6-3.07-.61-3.04-.63-3-.63-2.95-.66-2.9-.67-2.85-.68-2.77-.7-2.7-.71-2.62-.73-2.54-.75-2.43-.76-2.34-.77-2.23-.8-2.11z"/><path id="_306305472" class="fil1" d="M2380.16 2447.68zM1244.28 1311.8z"/><path id="_306305496" class="fil1" d="m1235.48 1322.21 1135.88 1135.88-1.46-.41-1.52-.47-1.59-.53-1.63-.57-1.67-.62-1.69-.67-1.7-.71-1.71-.74-1.7-.78-1.68-.82-1.65-.85-1.61-.87-1.56-.9-1.49-.92-1.42-.93-1.33-.96-1135.88-1135.88 1.33.95 1.42.94 1.49.92 1.56.9 1.61.87 1.65.85 1.68.81 1.7.79 1.71.74 1.7.71 1.69.67 1.67.62 1.63.57 1.59.53 1.52.47z"/><path id="_306305424" class="fil1" d="M803.566 921.491 1939.45 2057.37l-1.5.25-1.38-.07-1.23-.34-1.1-.58-.93-.77L797.427 919.974l.936.777 1.092.578 1.237.341 1.374.067z"/><path id="_306305904" class="fil1" d="M874.631 1045.56 2010.51 2181.45l-.16-.04-.15-.04-.16-.04-.15-.04-.15-.04-.15-.05-.15-.04-.15-.05L873.407 1045.23l.149.04.15.05.151.04.152.05.154.04.155.04.156.04z"/><path id="_306305616" class="fil1" d="M1069.98 1286.02 2205.86 2421.9l-1.14 1.83-1.18 1.8-1.22 1.75-1.26 1.71-1.31 1.63-1.36 1.56-1.42 1.47-1.49 1.36-1.54 1.24-1.62 1.1-1.68.96-1.77.8-1.84.63-1.93.45-2.02.24-2.11.04-1135.88-1135.88 2.11-.04 2.02-.24 1.93-.45 1.84-.63 1.76-.8 1.69-.96 1.62-1.11 1.54-1.24 1.48-1.36 1.43-1.46 1.36-1.56 1.31-1.64 1.26-1.7 1.22-1.76 1.18-1.79z"/><path id="_306305664" class="fil1" d="M1077.22 1285.75 2213.1 2421.63l-7.07 1.62-1135.88-1135.88z"/><path id="_306305736" class="fil1" d="m1070.15 1287.37 1135.88 1135.88-.07-.01-1135.89-1135.88z"/><path id="_306305808" class="fil1" d="M895.313 1045.61 2031.19 2181.49l-1.31.15-1.32.14-1.34.13-1.35.12-1.35.1-1.36.08-1.34.06-1.35.03-1.33.01-1.31-.02-1.29-.04-1.27-.08-1.25-.12-1.21-.16-1.17-.19-1.13-.24L874.626 1045.58l1.134.24 1.173.19 1.21.16 1.242.11 1.27.08 1.295.05 1.313.02 1.33-.01 1.342-.04 1.349-.06 1.353-.08 1.353-.1 1.347-.11 1.34-.13 1.326-.14z"/><path id="_306306000" class="fil1" d="M2007.71 2295.11zM871.83 1159.23z"/><path id="_306305304" class="fil1" d="M1996.82 2299.87zM860.94 1163.99z"/><path id="_306306432" class="fil1" d="M806.917 1136.03 1942.8 2271.91l-2.73.99L804.188 1137.02z"/><path id="_306306744" class="fil1" d="M804.188 1137.02 1940.07 2272.9l-1.79.69-1.86.57-1.87.49-1.82.45-1.69.45-1.49.48-1.23.56-.9.68L791.535 1141.39l.903-.68 1.232-.56 1.494-.48 1.689-.45 1.814-.45 1.873-.49 1.863-.58z"/><path id="_306306240" class="fil1" d="M791.535 1141.39 1927.42 2277.27l-1.16.99-1.21.66-1.23.35-1.23.07-1.21-.17-1.14-.4-1.07-.61-.95-.77L782.342 1141.51l.949.77 1.063.6 1.147.41 1.204.17 1.233-.07 1.234-.36 1.208-.65z"/><path id="_306306456" class="fil1" d="M871.694 1172.4 2007.58 2308.28l-.69 1.94-.67 2.04-.66 2.14-.65 2.22-.64 2.32-.63 2.39-.61 2.47-.61 2.53-.59 2.59-.58 2.65-.57 2.7-.56 2.74-.55 2.77-.54 2.81-.53 2.84-.52 2.85-.5 2.87-.5 2.87-.49 2.87-.47 2.87-.47 2.86-.45 2.85-.45 2.81-.43 2.8-.43 2.75-.42 2.72-.4 2.67-.4 2.62-.38 2.56-.38 2.49-.37 2.43-.36 2.34-.21 1.49-.18 1.52-.16 1.56-.14 1.58-.13 1.61-.1 1.63-.1 1.66-.09 1.67-.09 1.68-.08 1.7-.09 1.71-.09 1.71-.1 1.72-.1 1.72-.12 1.72-.14 1.71-.16 1.7-.18 1.7-.21 1.68-.24 1.66-.26 1.64-.31 1.63-.34 1.59-.39 1.58-.42 1.53-.48 1.51-.53 1.47-.58 1.43-.64 1.39-.69 1.35-.77 1.3-.82 1.25-1.04 1.29-1.06 1-1.08.76-1.12.56-1.15.42-1.19.33-1.23.28-1.27.28L837.12 1311.5l1.273-.28 1.229-.28 1.187-.33 1.149-.42 1.116-.56 1.085-.76 1.061-1 1.037-1.3.827-1.24.762-1.3.696-1.35.638-1.39.581-1.43.527-1.47.476-1.51.429-1.54.384-1.57.342-1.6.305-1.62.268-1.64.236-1.67.208-1.68.181-1.69.158-1.7.139-1.72.122-1.71.108-1.72.096-1.72.09-1.71.085-1.71.084-1.7.086-1.68.09-1.68.099-1.65.109-1.63.124-1.61.141-1.59.16-1.55.184-1.52.211-1.49.358-2.35.367-2.42.377-2.5.386-2.55.397-2.62.405-2.67.416-2.72.426-2.76.435-2.79.446-2.82.455-2.84.466-2.86.476-2.87.486-2.87.497-2.88.507-2.86.517-2.86.529-2.83.539-2.81.549-2.78.561-2.74.57-2.69.583-2.65.593-2.59.604-2.54.616-2.46.627-2.39.638-2.32.648-2.23.661-2.13.673-2.05z"/><path id="_306306096" class="fil1" d="M950.984 1263.71 2086.87 2399.59l-1.07-.38-1.13-.46-1.19-.57-1.25-.73-1.3-.94-1.32-1.18L943.726 1259.45l1.327 1.18 1.292.93 1.249.74 1.197.57 1.133.46z"/><path id="_306306288" class="fil1" d="M971.221 1285.92 2107.1 2421.8l-1.98-.94L969.237 1284.98z"/><path id="_306306648" class="fil1" d="M969.237 1284.98 2105.12 2420.86l-1.59-1.01-1.6-1.24-1.59-1.43L964.456 1281.3l1.596 1.43 1.598 1.24z"/><path id="_306306144" class="fil1" d="M974.114 1286.78 2109.99 2422.67l-2.89-.87L971.221 1285.92z"/><path id="_306306720" class="fil1" d="m900.36 1167.89 1135.88 1135.88-1.89.48-1.91.48-1.91.46-1.91.45-1.91.43-1.9.41-1.88.38-1.87.35-1.84.31-1.8.27-1.77.23-1.72.17-1.68.12-1.62.05h-1.56l-1.49-.08L871.694 1172.4l1.496.07 1.561.01 1.621-.06 1.676-.11 1.724-.17 1.767-.23 1.805-.27 1.836-.31 1.864-.35 1.884-.38 1.9-.41 1.909-.43 1.913-.45 1.913-.47 1.905-.47z"/><path id="_306306216" class="fil1" d="M978.017 1286 2113.9 2421.89l-.03.53.01.38.01.26-.06.14-.16.05-.34-.02-.56-.09-.83-.12L976.061 1287.13l.832.13.556.09.336.02.167-.05.053-.15-.007-.25-.014-.39z"/><path id="_306307224" class="fil1" d="M2105.12 2420.86zM969.24 1284.98z"/><path id="_306307536" class="fil1" d="m1020.76 1312.51 1135.88 1135.88-1.17-.21-1.21-.25-1.22-.3-1.24-.34-1.25-.38-1.25-.42-1.24-.47-1.23-.51-1.21-.54-1.18-.59-1.15-.63-1.1-.67-1.06-.7-1-.75-.94-.78-1135.88-1135.88.94.78 1 .75 1.06.7 1.1.67 1.15.63 1.18.58 1.21.55 1.23.51 1.24.46 1.25.43 1.25.38 1.24.34 1.22.3 1.2.25z"/><path id="_306307368" class="fil1" d="M809.095 1324.4 1944.98 2460.29l-1.71.8-1.81.69-1.83.62-1.77.57-1.66.57-1.47.59-1.2.66-.86.75L796.791 1329.66l.862-.76 1.2-.65 1.465-.59 1.657-.57 1.779-.58 1.827-.61 1.805-.69z"/><path id="_306307008" class="fil1" d="M796.791 1329.66 1932.67 2465.54l-1.07 1.07-1.16.74-1.2.44-1.23.17-1.21-.09-1.18-.32-1.1-.52-1.01-.7L787.633 1330.45l1.006.7 1.105.52 1.174.32 1.214.09 1.223-.17 1.205-.44 1.155-.74z"/><path id="_306306840" class="fil1" d="m1106.99 1256.17 1135.88 1135.89-1.65 2.14-1.66 1.68-1.62 1.28-1.51.94-1.32.65-1.08.42-.75.26-.37.16-.19.26-.41.63-.6.94-.78 1.21-.95 1.44-1.09 1.61-1.23 1.75-1.35 1.83-1.45 1.88-1.53 1.87-1.61 1.83-1.67 1.73-1.71 1.59-1.74 1.4-1.75 1.17-1.75.9-1135.88-1135.88 1.75-.9 1.75-1.17 1.74-1.41 1.71-1.59 1.66-1.73 1.61-1.82 1.54-1.87 1.45-1.88 1.35-1.83 1.23-1.75 1.09-1.62.95-1.43.78-1.21.6-.94.41-.63.19-.27.37-.15.75-.26 1.07-.42 1.33-.66 1.51-.93 1.62-1.28 1.66-1.68z"/><path id="_306307560" class="fil1" d="M2353.72 2435.8zM1217.84 1299.92z"/><path id="_306306912" class="fil1" d="m1045.09 1304.59 1135.88 1135.88-1.08.94-1.2.91-1.31.87-1.41.83-1.5.79-1.56.73-1.61.66-1.66.6-1.68.53-1.69.44-1.69.36-1.68.27-1.65.16-1.6.06-1.54-.05-1.47-.18-1135.88-1135.88 1.47.17 1.54.06 1.6-.06 1.65-.17 1.67-.26 1.7-.36 1.69-.44 1.68-.53 1.66-.6 1.61-.67 1.56-.73 1.49-.78 1.42-.83 1.31-.88 1.2-.91z"/><path id="_306307344" class="fil1" d="M2113.91 2421.93zM978.03 1286.05z"/><path id="_306306864" class="fil1" d="m1001.51 1304.13 1135.88 1135.88-1.04-.1-1.09-.12-1.14-.18-1.19-.25-1.24-.35-1.3-.47-1.36-.61-1.41-.79-1.48-.98-1.54-1.19-1.61-1.44L987.113 1297.65l1.605 1.43 1.541 1.2 1.478.98 1.416.79 1.357.61 1.301.47 1.242.35 1.191.25 1.137.18 1.089.12z"/><path id="_306307056" class="fil1" d="m1002.44 1304.14 1135.88 1135.88-.93.02-1135.88-1135.89z"/><path id="_306307176" class="fil1" d="M976.061 1287.13 2111.94 2423.02l-1.95-.35L974.114 1286.78z"/><path id="_306307728" class="fil1" d="m1238.13 1323.37 1135.88 1135.88-2.65-1.16-1135.88-1135.88z"/><path id="_306307752" class="fil1" d="m1260.53 1320.27 1135.88 1135.89.85 1.25.51 1.28.21 1.26-.07 1.24-.31 1.17-.54 1.1-.71.98-.88.86-1.01.7-1.1.52-1.18.32-1.21.09-1.23-.16-1.2-.44-1.16-.75L1251.5 1329.7l1.16.74 1.2.44 1.23.17 1.21-.09 1.17-.32 1.11-.52 1.01-.7.87-.86.72-.99.54-1.09.31-1.18.07-1.23-.21-1.27-.51-1.27z"/><path id="_306308112" class="fil1" d="M2374.01 2459.25zM1238.13 1323.37z"/><path id="_306308160" class="fil1" d="m1122.41 1226.5 1135.88 1135.88-.69 1.68-.74 1.75-.79 1.8-.82 1.85-.87 1.89-.9 1.91-.94 1.94-.97 1.94-1 1.95-1.03 1.94-1.06 1.93-1.08 1.9-1.1 1.87-1.13 1.83-1.14 1.78-1.16 1.72-1135.88-1135.89 1.16-1.72 1.14-1.77 1.13-1.83 1.1-1.87 1.08-1.91 1.06-1.92 1.03-1.94 1-1.95.97-1.95.94-1.93.9-1.92.87-1.88.82-1.85.79-1.8.74-1.75z"/><path id="_306308280" class="fil1" d="M2336.84 2441.41zM1200.96 1305.53z"/><path id="_306307632" class="fil1" d="m1210.07 1310.46 1135.88 1135.88-.47-.11-.8-.13-1.07-.21-1.25-.36-1.37-.56-1.43-.83-1.4-1.17-1135.88-1135.88 1.4 1.17 1.42.83 1.38.56 1.25.35 1.07.21.8.13z"/><path id="_306307824" class="fil1" d="m1250.43 1328.63 1135.88 1135.88-.86-.75-1.2-.65-1.47-.6-1.65-.57-1.78-.57-1.82-.62-1.81-.69-1.71-.81-1135.88-1135.88 1.71.8 1.8.7 1.83.62 1.78.57 1.65.57 1.47.59 1.19.66z"/><path id="_306307872" class="fil1" d="m1259.54 1319.17 1135.88 1135.88.99 1.11-1135.88-1135.89z"/><path id="_306308064" class="fil1" d="M1451.27 1466.01 2587.15 2601.9l-2.25 2.25-2.38 2.18-2.51 2.1-2.64 2.04-2.76 1.97-2.89 1.89-3.01 1.83-3.14 1.75-3.28 1.68-3.39 1.61-3.52 1.54-3.65 1.47-3.78 1.39-3.9 1.33-4.03 1.25-4.16 1.19-4.28 1.11-4.41 1.04-4.53.97-4.66.89-4.78.83-4.92.75-5.03.68-5.16.61-5.29.54-5.41.47-5.54.39-5.66.33-5.79.25-5.91.18-6.04.11-6.16.03h-23.86L1292.55 1502.67h23.86l6.16-.04 6.04-.1 5.91-.18 5.79-.26 5.66-.32 5.54-.39 5.41-.47 5.29-.54 5.16-.61 5.03-.68 4.91-.76 4.79-.82 4.66-.9 4.53-.97 4.41-1.03 4.28-1.12 4.16-1.18 4.03-1.25 3.9-1.33 3.77-1.39 3.65-1.47 3.53-1.54 3.39-1.61 3.27-1.68 3.15-1.76 3.01-1.82 2.89-1.89 2.76-1.97 2.64-2.04 2.51-2.11 2.37-2.18z"/><path id="_306308232" class="fil1" d="m1182.77 1034.87 1135.89 1135.88.78.98.75.99.72 1 .69 1.02.66 1.02.63 1.04.61 1.06.59 1.06.56 1.09.54 1.09.52 1.11.5 1.13.48 1.14.46 1.16.45 1.18.44 1.19.43 1.21.41 1.22.41 1.24.39 1.27.39 1.28.39 1.29.38 1.32.38 1.34.37 1.36.38 1.37.38 1.4.38 1.42.38 1.44.39 1.46.4 1.49.41 1.5.36 1.36.38 1.42.4 1.48.41 1.54.43 1.58.44 1.63.46 1.66.47 1.68.48 1.71.49 1.71.5 1.73.51 1.73.52 1.72.53 1.71.54 1.69.55 1.66.55 1.63.55 1.59.56 1.54.57 1.49.57 1.44.57 1.36.58 1.3.57 1.21.58 1.13.58 1.03.58.94.57.83.58.72.57.59-1135.88-1135.88-.58-.6-.57-.71-.58-.83-.57-.94-.58-1.03-.58-1.13-.57-1.22-.58-1.29-.57-1.37-.57-1.43-.57-1.49-.56-1.54-.55-1.59-.56-1.63-.54-1.67-.54-1.69-.53-1.7-.52-1.72-.51-1.73-.5-1.73-.49-1.72-.48-1.7-.47-1.69-.46-1.65-.44-1.63-.43-1.58-.41-1.54-.4-1.48-.38-1.42-.37-1.36-.4-1.51-.4-1.48-.39-1.46-.38-1.44-.38-1.42-.38-1.4-.38-1.38-.38-1.35-.37-1.34-.38-1.32-.39-1.3-.39-1.28-.4-1.26-.4-1.24-.42-1.23-.42-1.21-.44-1.19-.45-1.17-.46-1.16-.49-1.14-.5-1.13-.51-1.11-.54-1.1-.56-1.08-.59-1.07-.61-1.05-.63-1.04-.66-1.03-.69-1.01-.72-1-.75-.99z"/><path id="_306308640" class="fil1" d="M1240.96 1136.52 2376.84 2272.4l-1.23-.26-1.26-.3-1.28-.31-1.3-.35-1.32-.36-1.33-.39-1.34-.41-1.33-.44-1.34-.46-1.33-.47-1.33-.5-1.31-.51-1.3-.54-1.28-.55-1.25-.57-1.22-.58-1135.88-1135.88 1.22.58 1.25.57 1.28.55 1.3.53 1.31.52 1.32.5 1.34.47 1.34.46 1.33.43 1.34.42 1.33.39 1.31.36 1.31.34 1.28.32 1.26.29z"/><path id="_306308880" class="fil1" d="M1024.31 863.195 2160.19 1999.08v.02L1024.31 863.216z"/><path id="_306308808" class="fil1" d="M2361.24 2253.33zM1225.36 1117.45z"/><path id="_306308496" class="fil1" d="m1265.91 1132.82 1135.88 1135.89.94 1.19.61 1.23.31 1.25.03 1.24-.23 1.19-.45 1.13-.64 1.04-.81.92-.95.77-1.06.61-1.15.4-1.2.18-1.23-.08-1.24-.35-1.21-.66-1.15-.99-.91-.67-1.23-.56-1.5-.49-1.7-.45-1.81-.45-1.88-.49-1.86-.57-1.78-.69-1135.88-1135.88 1.78.68 1.86.57 1.87.5 1.82.45 1.7.45 1.49.48 1.24.56.9.68 1.16.99 1.21.66 1.24.35 1.23.07 1.2-.17 1.15-.41 1.06-.6.95-.77.81-.92.64-1.04.45-1.13.22-1.2-.02-1.23-.31-1.25-.61-1.23z"/><path id="_306308832" class="fil1" d="m1243.81 1137.53 1135.88 1135.88-2.85-1.01-1135.88-1135.88z"/><path id="_306308688" class="fil1" d="M1139.71 914.263 2275.59 2050.14l-1.19 1.58-1.28 1.49-1.37 1.4-1.45 1.33-1.52 1.25-1.58 1.2-1.64 1.13-1.69 1.08-1.72 1.04-1.75 1-1.78.96-1.78.94-1.79.92-1.79.9-1.77.89-1.75.89L1113.86 932.263l1.75-.893 1.77-.894 1.79-.903 1.79-.918 1.78-.936 1.78-.965 1.75-.997 1.72-1.037 1.69-1.082 1.64-1.134 1.58-1.193 1.52-1.255 1.45-1.328 1.37-1.403 1.28-1.487z"/><path id="_306308448" class="fil1" d="M1153.97 956.822 2289.85 2092.7l1.24 1.36 1.16 1.36 1.08 1.35.99 1.36.89 1.34.79 1.33.67 1.32.55 1.3.43 1.27.29 1.24.16 1.21L1162.21 971.26l-.15-1.212-.29-1.243-.43-1.271-.55-1.297-.68-1.316-.78-1.332-.89-1.345-.99-1.353-1.08-1.357-1.16-1.358z"/><path id="_306308712" class="fil1" d="M1584 996.947 2719.88 2132.83v55.14L1584 1052.09z"/><path id="_306308664" class="fil1" d="m1584 1052.09 1135.88 1135.88-2.87.38-2.83.41-2.78.45-2.74.49-2.69.52-2.64.56-2.59.6-2.55.63-2.5.67-2.45.71-2.4.74-2.36.78-2.31.82-2.27.86-2.21.89-2.17.93-2.12.96-2.07 1-2.03 1.04-1.98 1.07-1.93 1.12-1.88 1.14-1.84 1.19-1.79 1.22-1.74 1.26-1.69 1.29-1.65 1.33-1.59 1.37-1.55 1.4-1.51 1.45-1.45 1.47-1.41 1.52-1135.88-1135.89 1.41-1.51 1.45-1.48 1.51-1.44 1.54-1.4 1.6-1.37 1.65-1.33 1.69-1.3 1.74-1.25 1.79-1.22 1.84-1.19 1.88-1.15 1.93-1.11 1.98-1.07 2.03-1.04 2.07-1 2.12-.97 2.17-.93 2.21-.89 2.27-.85 2.31-.82 2.35-.78 2.41-.74 2.45-.71 2.5-.67 2.55-.64 2.59-.59 2.64-.56 2.69-.53 2.73-.48 2.79-.45 2.83-.41z"/><path id="_306309000" class="fil1" d="M1065.03 899.071 2200.91 2034.95l1.64 1.72 1.24 1.53.91 1.36.67 1.21.5 1.09.4.98.38.9.44.84.58.8L1071.78 909.498l-.57-.801-.44-.838-.38-.899-.4-.982-.5-1.086-.67-1.212-.92-1.36-1.23-1.529z"/><path id="_306309072" class="fil1" d="M1102.2 923.219 2238.09 2059.1l.19.33L1102.4 923.545z"/><path id="_306309552" class="fil1" d="M1162.21 971.26 2298.1 2107.14l.03 2.19-.19 2.07-.36 1.97-.53 1.87-.64 1.78-.75 1.71-.82 1.64-.85 1.57-.87 1.51-.85 1.47-.8 1.43-.73 1.4-.63 1.38-.49 1.36-.33 1.35-.14 1.36L1153.27 997.315l.14-1.356.33-1.353.49-1.362.63-1.376.73-1.398.8-1.431.85-1.469.87-1.516.85-1.571.82-1.636.74-1.706.65-1.786.53-1.872.36-1.968.18-2.072z"/><path id="_306309144" class="fil1" d="m1515.41 1082.35 1135.88 1135.89-1.77 2.03-1.71 2.13-1.66 2.22-1.61 2.31-1.55 2.4-1.49 2.49-1.43 2.58-1.38 2.67-1.33 2.76-1.27 2.85-1.21 2.94-1.16 3.03-1.1 3.12-1.04 3.21-.99 3.3-.93 3.4-.88 3.48-.82 3.57-.76 3.66-.71 3.75-.65 3.85-.59 3.93-.54 4.02-.48 4.11-.42 4.2-.37 4.3-.31 4.38-.26 4.47-.2 4.57-.14 4.65-.08 4.74-.03 4.84v123.79l-.04 7-.1 6.84-.17 6.7-.24 6.55-.31 6.4-.38 6.25-.45 6.1-.51 5.96-.59 5.81-.66 5.66-.72 5.5-.79 5.36-.86 5.21-.93 5.07-1 4.91-1.07 4.76-1.14 4.62-1.2 4.46-1.28 4.31-1.34 4.17-1.41 4.02-1.48 3.86-1.55 3.72-1.62 3.56-1.69 3.42-1.76 3.26-1.82 3.12-1.9 2.96-1.96 2.81-2.03 2.66-2.1 2.52-2.17 2.36-1135.88-1135.89 2.17-2.36 2.1-2.51 2.03-2.66 1.96-2.81 1.9-2.97 1.82-3.11 1.76-3.27 1.69-3.41 1.62-3.57 1.55-3.71 1.48-3.87 1.41-4.01 1.34-4.17 1.28-4.31 1.2-4.47 1.14-4.61 1.07-4.76 1-4.92.93-5.06.86-5.21.79-5.36.72-5.51.66-5.65.58-5.81.52-5.96.45-6.1.38-6.25.31-6.4.24-6.55.17-6.7.1-6.85.04-6.99v-123.79l.03-4.84.08-4.74.14-4.65.2-4.57.26-4.47.31-4.38.37-4.3.42-4.2.48-4.11.54-4.03.59-3.93.65-3.84.71-3.75.76-3.66.82-3.57.88-3.49.93-3.39.99-3.3 1.04-3.21 1.1-3.12 1.16-3.03 1.21-2.94 1.27-2.85 1.32-2.76 1.38-2.67 1.44-2.58 1.49-2.49 1.55-2.4 1.6-2.31 1.67-2.22 1.71-2.13z"/><path id="_289370168" class="fil1" d="M755.454 545.332v53.772h-18.673c-44.262 0-74.173 8.472-89.733 25.243-15.563 16.77-23.342 51.35-23.342 103.912v122.93c0 56.71-7.262 97.168-21.958 121.375-14.697 24.378-40.631 41.84-77.804 52.732 37.173 10.375 63.107 27.664 77.804 52.043 14.696 24.206 21.958 64.664 21.958 121.547v122.238c0 52.39 7.607 86.968 22.822 103.74 15.215 16.598 43.916 25.07 86.104 25.07l22.822-1.037v53.771h-23.86c-66.393 0-111.52-12.276-134.86-36.654-23.515-24.38-35.272-74.52-35.272-149.903v-123.795c0-52.043-9.682-88.697-28.874-109.963-14.746-16.342-37.663-26.455-68.589-30.262v-55.145c30.926-3.809 53.843-13.92 68.589-30.262 19.192-21.44 28.874-58.266 28.874-110.309V733.272c0-75.212 11.757-125.525 35.444-150.422 23.687-25.07 68.468-37.519 134.688-37.519h23.86zm695.64 37.519c23.687 24.896 35.444 75.21 35.444 150.422v123.103c0 52.043 9.682 88.87 28.874 110.309 14.746 16.342 37.663 26.453 68.59 30.262v55.145c-30.927 3.807-53.844 13.92-68.59 30.262-19.192 21.266-28.874 57.92-28.874 109.963v123.795c0 75.384-11.757 125.524-35.272 149.903-23.34 24.378-68.467 36.654-134.86 36.654h-23.86v-53.77l22.822 1.036c42.188 0 70.889-8.472 86.104-25.07 15.215-16.771 22.823-51.35 22.823-103.74v-122.238c0-56.883 7.26-97.342 21.957-121.547 14.697-24.379 40.632-41.668 77.804-52.043-37.172-10.892-63.107-28.354-77.804-52.732-14.696-24.207-21.957-64.665-21.957-121.375V728.26c0-52.562-7.78-87.142-23.343-103.912-15.56-16.771-45.47-25.243-89.733-25.243h-18.673v-53.772h23.86c66.22 0 111 12.449 134.688 37.519zM1193.841 921.4zm32.401-10.677zm4.812 12.185zm-33.991 11.299zm-26.102 98.873zm54.395 84.362zm-49.729 40.695zm10.675 4.902zm31.534 136.877zm26.44 11.882zm-6.144 11.568zm-37.176-17.844zm-93.969-49.35zM978.03 1286.05zm-8.793-1.075zM860.938 1163.99zm10.89-4.765zm22.782-141.101zm29.596-81.858zm10.045-4.106zm25.384-15.406zm103.27-19.604zm131.695 23.235c1.694-3.276 5.217-5.505 8.996-5.472 6.578.057 17.31-2.107 22.643-4.197 6.702-2.649 14.398-3.304 21.214-1.503 8.34 2.2 5 14.858-3.333 12.662-4.103-1.083-8.941-.585-13.067 1.035-6.021 2.487-18.062 4.808-25.754 5.05a16.071 16.071 0 0 1-2.805 3.273l-.012-.013a13.853 13.853 0 0 1-5.42 2.989c-6.968 1.99-41.827-14.032-48.057-16.542l-9.3-3.404c-6.043 8.654-16.576 13.233-25.85 18l9.863 4.017c11.353 3.341 37.668 22.244 38.495 34.98.781 11.956-8.75 18.81-8.949 26.056.126 5.617-.134 23.388-.302 34.651l-.14.967c5.071.622 15.598 1.661 18.13.14 3.82-2.378 8.76-1.92 11.821 1.797 8.536 10.367 11.276 22.687 15.65 38.87 3.804 14.077 10.588 40.729 16.585 43.625.392.035 5.62-2.396 10.353.068 10.21 5.19 15.582 4.917 23.722 8.098 4.605 2.035 11.147 1.397 16.823 7.292 5.973 6.208-3.458 15.286-9.433 9.075-1.909-1.983-8.086-2.346-12.669-4.373l-2.846-1.006c-6.491-1.345-14.308-3.844-20.752-7.002-3.546 1.237-7.44 1.307-10.89-.36-17.848-8.637-23.403-66.7-34.731-83.42-5.709 1.855-14.687 1.231-21.909.381l-.195 41.522c.726 15.098-1.692 49.58-3.09 66.056l.207.052-.242.074-.059.05-.047.058c9.006 2.288 21.477 5.397 26.374 4.2 4.247-1.423 8.891.72 10.687 4.907 8.73 20.512 14.606 63.252 18.68 89.77 2.053 13.368.449 35.001 6.263 44.535 2.253.333 4.716 1.152 6.59 2.564 5.485 4.133 14.974 7.99 21.07 9.643l5.365 2.24c4.527 2.405 11.06 2.212 16.246 8.483 5.48 6.624-4.62 14.979-10.1 8.356-1.785-2.159-7.928-2.93-12.294-5.261l-2.651-1.155c-7.578-2.061-18.547-6.626-25.414-11.754-.746-.347-5.79-.156-9.1-4.945-9.143-12.8-6.557-35.193-8.947-50.757-3.792-24.68-9.12-63.236-16.497-83.386-7.6.592-18.105-1.835-27.961-4.33l.019.031.2.16-2.86 14.278-.019-.005c-1.332 5.898-5.699 10.763-5.81 11.315-1.491 7.694-4.884 21.86-10.703 29.522-2.036 2.678-4.089 3.57-5.98 4.154-3.576 8.797-9.198 20.68-15.422 29.678-4.293 6.385-9.558 7.214-9.954 7.53-.469.376-10.53 18.082-19.814 22.043l-7.068 1.622c-.257.032-.05-.403-.172-1.348-5.992 9.779-13.385 18.973-24.886 18.565-5.402 5.077-16.707 9.173-24.336 7.925-6.17-1.009-13.872-3.879-18.322-8.368l-.927.01v-.025c-5.418-.481-12.816-1.138-23.466-18.084l-.025-.04c-.197 1.622.675 1.512-1.956 1.131l-1.948-.35-2.892-.864-1.985-.945c-8.403-4.669-17.978-21.052-18.252-21.27-2.722-.949-6.328-2.25-9.969-7.529-9.273-13.412-11.95-21.303-21.435-33.838l-16.492-40.829-2.729-13.618c-10.049 2.556-20.873 5.11-28.665 4.505-7.356 20.107-12.724 58.766-16.492 83.386-2.398 15.667.241 37.76-8.946 50.79-2.74 3.888-5.677 4.123-9.137 4.928l-.011-.035c-6.923 5.2-17.745 9.704-25.397 11.772l-.004-.017-2.613 1.183c-4.366 2.32-10.518 3.09-12.303 5.252-5.477 6.622-15.58-1.732-10.1-8.356 5.186-6.273 11.732-6.083 16.25-8.484l5.391-2.223-.004-.019c6.401-1.73 15.272-5.419 21.057-9.646l-.013-.017c1.847-1.394 4.345-2.22 6.61-2.542 5.806-9.545 4.205-31.183 6.248-44.534 3.919-25.611 10.204-70.553 18.702-89.848 1.866-4.219 6.36-6.2 10.898-4.769l.262.056.002-.018c5.58.686 15.526-1.67 24.79-4.018l-.511-1.086c-1.32-18.653-1.616-50.857-.865-66.511.624-13.122.18-28.805-.196-42.03-6.933.818-14.756 1.351-20.687-.03l.005-.016c-.42-.095-.828-.209-1.224-.338-11.311 16.728-16.884 74.774-34.737 83.418-3.448 1.67-7.34 1.597-10.887.36-6.258 3.069-14.59 5.793-20.866 7.023l-2.728.988c-4.598 2.029-10.747 2.386-12.653 4.371-5.966 6.209-15.408-2.858-9.434-9.074 5.662-5.899 12.171-5.247 16.805-7.294 8.004-3.113 13.559-2.935 23.719-8.097 5.032-2.558 9.985.108 10.353-.069 6.252-3.019 13.73-32.897 17.566-47.17 4.168-15.532 7.062-26.316 14.821-35.508 2.954-3.499 7.919-3.951 11.667-1.615l.564.273.003-.017c4.291.998 11.511.362 17.244-.348l-.198-.483-.034-13.861.045-20.848c-.179-7.194-9.711-14.085-8.948-26.015.813-12.703 27.158-31.647 38.499-34.995 5.006-1.533 7.61-2.622 10.057-4.095l.429.086c-8.953-4.738-20.243-9.118-26.704-18.385l-9.304 3.389c-5.403 2.175-40.941 18.604-48.081 16.57-3.458-.988-6.274-3.314-8.222-6.275-7.87-.233-19.499-2.53-25.796-5.048-3.956-1.583-8.875-2.122-13.02-1.017-8.318 2.204-11.68-10.46-3.334-12.663 7.057-1.87 14.594-1.107 21.337 1.576 5.337 2.125 16.088 4.104 22.622 4.102 5.864-.002 7.48 3.964 10.003 6.713.397-.042 3.969-1.674 9.422-3.707 9.725-3.623 22.688-9.108 29.79-12.248 4.01-1.77 13.845-5.476 17.86-5.282 3.43.167 5.985 1.999 6.807 5.213.307 1.235 2.384 3.425 4.413 5.098 6.683 5.511 17.918 9.454 26.708 15.184l.041-.104c2.093.146 3.98-5.723 7.113-7.154l3.287-1.465c5.927-2.133 15.458-4.159 17.343-8.682 2.602-6.253 5.958-9.144 8.08-10.968 1.125-3.753 1.532-7.989 1.296-11.89-.235-3.134.647-6.178 2.435-8.493a.41.41 0 0 0 .389.154c-.85-2.93-2.485-6.737-.145-9.35a5.911 5.911 0 0 1-.638-1.791c-17.534-95.6-109.58-159.117-205.18-141.582-7.655 1.403-9.789-10.226-2.133-11.63 100.957-18.516 198.176 47.668 218.32 147.914 2.9-1.082 6.196 1.834 6.923 4.63.335 1.279.644 2.512.924 3.693a.41.41 0 0 0 .019-.717c5.094-3.783 10.786-4.846 17.037-4.846v.021c5.912-.134 12.97 1.79 16.622 5.077l.812-3.228c.84-3.226 4.37-5.515 6.803-4.712 20.18-100.2 117.376-166.344 218.304-147.832 7.653 1.404 5.523 13.033-2.133 11.63-95.601-17.535-187.647 45.982-205.18 141.581a5.925 5.925 0 0 1-.57 1.665c2.353 2.9.92 6.04 0 9.208l.077-.034c4.665 5.793.786 10.611 3.875 20.566 12.669 10.917 1.826 11.82 19.354 17.558l11.608 4.165 4.933 2.354 3.394 2.004.196.326c7.673-4.393 17.005-8.094 22.794-12.859 2.399-1.975 3.998-3.66 4.534-5.438 1.378-4.568 6.118-5.623 10.387-4.448 4.965 1.367 9.098 2.63 14.17 4.87 7.115 3.134 20.118 8.634 29.843 12.254 5.67 2.11 9.016 4.07 9.702 3.465.296-.26.556-.604.77-1.005z"/></g></g><path d="M1024-.001c565.539 0 1024 458.462 1024 1024 0 565.539-458.462 1024-1024 1024-565.539 0-1024-458.462-1024-1024 0-565.54 458.462-1024 1024-1024z" style="fill:none"/><path class="fil3" d="M755.454 599.104h-18.673c-44.262 0-74.173 8.472-89.733 25.242-15.563 16.771-23.342 51.351-23.342 103.912v122.93c0 56.711-7.262 97.169-21.958 121.375-14.697 24.378-40.631 41.841-77.804 52.733 37.173 10.375 63.107 27.664 77.804 52.043 14.696 24.206 21.958 64.664 21.958 121.547v122.238c0 52.39 7.607 86.968 22.822 103.74 15.215 16.598 43.916 25.07 86.104 25.07 2.42 0 6.05-.173 11.238-.518 5.014-.347 8.818-.519 11.584-.519v53.771h-23.86c-66.393 0-111.52-12.276-134.86-36.654-23.515-24.38-35.272-74.52-35.272-149.903v-123.795c0-52.043-9.682-88.698-28.874-109.963-14.746-16.342-37.663-26.455-68.589-30.262v-55.145c30.926-3.809 53.843-13.92 68.589-30.262 19.192-21.44 28.874-58.266 28.874-110.31V733.273c0-75.212 11.757-125.525 35.444-150.422 23.687-25.07 68.468-37.519 134.688-37.519h23.86v53.772zM1292.55 599.104h18.673c44.262 0 74.173 8.472 89.733 25.242 15.562 16.771 23.342 51.351 23.342 103.912v122.93c0 56.711 7.262 97.169 21.958 121.375 14.697 24.378 40.631 41.841 77.804 52.733-37.173 10.375-63.107 27.664-77.804 52.043-14.696 24.206-21.958 64.664-21.958 121.547v122.238c0 52.39-7.607 86.968-22.822 103.74-15.215 16.598-43.916 25.07-86.104 25.07-2.42 0-6.05-.173-11.238-.518-5.014-.347-8.818-.519-11.584-.519v53.771h23.86c66.393 0 111.52-12.276 134.86-36.654 23.515-24.38 35.272-74.52 35.272-149.903v-123.795c0-52.043 9.682-88.698 28.874-109.963 14.746-16.342 37.663-26.455 68.589-30.262v-55.145c-30.926-3.809-53.843-13.92-68.589-30.262-19.192-21.44-28.874-58.266-28.874-110.31V733.273c0-75.212-11.757-125.525-35.444-150.422-23.687-25.07-68.467-37.519-134.688-37.519h-23.86v53.772z"/><path class="fil4" d="M995.277 870.481a5.913 5.913 0 0 1-6.881-4.748c-17.534-95.6-109.58-159.116-205.18-141.582a5.912 5.912 0 0 1-2.133-11.63C883.1 693.81 981.315 761.585 1000.026 863.6a5.915 5.915 0 0 1-4.75 6.88zM1052.65 870.481a5.914 5.914 0 0 0 6.882-4.748c17.534-95.6 109.58-159.116 205.18-141.582a5.912 5.912 0 0 0 2.133-11.63c-102.018-18.711-200.232 49.063-218.943 151.079a5.913 5.913 0 0 0 4.748 6.88z"/><path class="fil5" d="m1058.66 877.662 1.313-4.525a6.52 6.52 0 0 0-.466-4.973c-1.786-3.056-9.354-7.665-11.703-7.997a6.545 6.545 0 0 0-6.061 4.896c-.41 1.569-.78 3.065-1.109 4.484l.03.011 17.944 8.076a.31.31 0 0 1 .052.028z"/><path class="fil6" d="M935.943 932.929c-7.967-4.351-14.503-6.548-21.762-12.536-2.495-2.059-4.614-4.26-6.191-6.521l-9.304 3.389c-7.037 3.11-20.145 8.645-30.505 12.505-5.634 2.099-10.691 3.66-14.156 4.11a6.523 6.523 0 0 1-3.42-.046c-3.458-.987-6.274-3.313-8.222-6.275-7.872-.233-19.499-2.529-25.798-5.047-3.954-1.584-8.873-2.122-13.019-1.017a6.548 6.548 0 0 1-3.332-12.664c7.056-1.87 14.593-1.106 21.335 1.577 5.338 2.125 16.089 4.103 22.622 4.101 3.795-.001 7.121 2.229 8.901 5.512l1.103 1.201c.397-.041 3.969-1.673 9.423-3.706 9.724-3.624 22.687-9.109 29.789-12.248 4.01-1.77 13.845-5.477 17.86-5.282 3.43.167 5.985 1.997 6.807 5.212.306 1.236 2.384 3.426 4.413 5.1 5.628 4.641 12.183 7.048 18.74 10.597 2.652 1.435 6.13 3.292 8.996 5.274l-14.054 6.491a.406.406 0 0 0-.226.273zM898.065 1045.27c-7.539.984-16.71 1.883-23.439.315l.005-.016c-.42-.096-.828-.21-1.224-.34-5.465 8.084-8.64 22.058-11.95 34.341-4.45 16.528-11.778 43.746-22.787 49.079-3.448 1.669-7.34 1.597-10.888.36-6.257 3.069-14.589 5.792-20.866 7.023l-2.729.987c-4.596 2.03-10.745 2.386-12.65 4.372a6.546 6.546 0 0 1-9.435-9.074c5.662-5.9 12.171-5.247 16.806-7.294l5.497-1.858c5.476-1.075 12.803-3.487 18.22-6.24 5.033-2.558 9.986.109 10.353-.068 6.252-3.02 13.733-32.898 17.566-47.17 4.169-15.533 7.062-26.315 14.82-35.507 2.956-3.499 7.921-3.952 11.669-1.616l.563.273.004-.017c4.96 1.154 13.83.125 19.798-.68a.41.41 0 0 0-.049.215l.609 12.658c.004.099.046.189.107.257zM903.822 1167.01c-10.957 2.805-23.432 6.065-32.127 5.39-7.356 20.106-12.724 58.765-16.492 83.385-2.398 15.668.241 37.759-8.946 50.792-1.972 2.797-5.024 4.406-8.35 4.743l-.787.184-.011-.036c-6.923 5.2-17.745 9.704-25.398 11.773l-.003-.017-2.613 1.182c-4.366 2.321-10.518 3.091-12.303 5.251a6.555 6.555 0 1 1-10.1-8.356c5.186-6.272 11.732-6.081 16.25-8.483l5.391-2.222-.004-.018c6.4-1.73 15.272-5.421 21.057-9.647l-.013-.017c1.847-1.395 4.345-2.22 6.61-2.544 5.806-9.543 4.206-31.181 6.248-44.532 3.919-25.612 10.204-70.553 18.707-89.846l-.005-.003c1.828-4.132 6.481-6.241 10.684-4.83l.212.068.002-.006.262.055.002-.017c6.261.77 18.014-2.29 28.139-4.871a.41.41 0 0 0-.017.274l3.59 12.304.015.044zM1144.65 1152.77c10.298 2.564 24.214 6.48 30.697 5.439l.282-.069-.002-.007c4.247-1.422 8.891.72 10.677 4.91l.01-.003c8.729 20.513 14.605 63.252 18.679 89.77 2.054 13.368.45 35.001 6.265 44.535 2.252.333 4.715 1.152 6.58 2.575l.009-.01c5.483 4.132 14.974 7.987 21.07 9.64l5.36 2.252.005-.01c4.526 2.405 11.06 2.212 16.246 8.483a6.554 6.554 0 0 1-10.1 8.357c-1.785-2.16-7.928-2.93-12.298-5.253l.004-.01-2.652-1.154c-7.576-2.061-18.546-6.626-25.414-11.754l-.732-.17c-3.354-.336-6.42-1.947-8.38-4.767l.014-.008c-9.144-12.8-6.558-35.193-8.948-50.757-3.792-24.68-9.12-63.236-16.496-83.385-8.739.679-21.314-2.628-32.33-5.445l.01-.05 1.666-12.69a.412.412 0 0 0-.222-.42zM1150.28 1032.61c5.587.752 16.176 1.98 20.35.67l.326-.195-.006-.01c3.819-2.376 8.762-1.918 11.822 1.8 8.535 10.366 11.275 22.686 15.649 38.868 3.804 14.078 10.588 40.73 16.585 43.625l1.44-.398c2.783-.921 6.276-.902 8.907.477l.006-.01c5.73 2.912 12.557 5.058 18.355 6.266l5.366 1.831c4.606 2.035 11.148 1.398 16.824 7.294a6.546 6.546 0 0 1-9.433 9.074c-1.91-1.983-8.087-2.347-12.669-4.373l-2.846-1.007c-6.492-1.344-14.308-3.843-20.752-7.001-3.546 1.237-7.44 1.307-10.89-.36-11.032-5.344-18.366-32.674-22.798-49.188-3.172-11.802-6.47-26.168-11.935-34.233-6.404 2.083-16.924 1.043-24.463.065a.364.364 0 0 0 .007-.072l.193-12.946a.4.4 0 0 0-.038-.177zM1100.81 924.464c4.413-2.571 8.943-5.036 13.427-7.11 4.145-1.91 8.009-4.24 10.958-6.668 2.399-1.973 3.998-3.66 4.534-5.437 1.379-4.569 6.118-5.624 10.387-4.45 4.965 1.368 9.1 2.632 14.17 4.871 7.116 3.134 20.119 8.634 29.844 12.254 5.43 2.022 8.963 3.649 9.347 3.678a.984.984 0 0 0 .365-.2l-.012-.012c.298-.263.558-.605.779-1.002l-.008-.004c1.695-3.276 5.217-5.505 8.997-5.472 6.577.057 17.308-2.107 22.645-4.187l-.003-.01c6.702-2.648 14.398-3.303 21.215-1.503a6.548 6.548 0 1 1-3.333 12.663c-4.102-1.083-8.941-.586-13.062 1.043l-.004-.008c-6.022 2.486-18.064 4.807-25.755 5.049-.805 1.228-1.738 2.336-2.806 3.274l-.01-.013a13.947 13.947 0 0 1-5.419 2.994l-.002-.006c-2.805.8-9.57-1.08-17.498-4.03-10.368-3.86-23.509-9.405-30.56-12.511l-9.299-3.404c-4.422 6.332-12.663 11.598-19.984 14.986l-7.992 4.106a.398.398 0 0 0-.145-.231l-10.765-8.653-.011-.007z"/><path class="fil5" d="m989.408 877.662-1.313-4.525a6.526 6.526 0 0 1 .466-4.973c.683-1.474 8.22-7.189 11.703-7.997a6.546 6.546 0 0 1 6.062 4.896c.41 1.569.78 3.065 1.108 4.484l-.03.011-17.944 8.076a.443.443 0 0 0-.052.028z"/><path class="fil4" d="M1059.04 876.572c1.913 2.375 2.72 5.37 2.525 8.64-.235 4.095.254 8.422 1.34 11.937l.01-.012c2.11 1.82 5.453 4.7 8.048 10.934 1.405 3.383 5.579 4.75 11.306 6.625 6.014 1.967 13.445 4.301 19.934 8.524-.01.13.043.263.153.353l10.767 8.651a.41.41 0 0 0 .573-.059c2.24 1.359 5.246 2.703 10.022 4.114 11.353 3.341 37.668 22.244 38.495 34.98.455 6.88-2.279 11.604-5.114 16.506-1.757 3.036-3.574 6.177-3.834 9.549.125 5.618-.135 23.39-.303 34.652a.412.412 0 0 0-.13.293l-.19 12.946a.407.407 0 0 0 .054.21c-.434 15.479-.785 30.434-.214 42.225.725 15.098-1.693 49.58-3.09 66.058l.207.05a.41.41 0 0 0-.415.357l-1.666 12.69a.41.41 0 0 0 .262.437l-2.86 14.277-.019-.005c-1.332 5.898-5.698 10.763-5.81 11.315-1.491 7.694-4.883 21.86-10.703 29.522-2.036 2.678-4.089 3.57-5.98 4.154-3.576 8.797-9.197 20.681-15.416 29.681l-.006-.003c-4.292 6.385-9.559 7.214-9.954 7.53-.236.188-9.827 16.504-18.206 21.252-3.005 1.708-6.096 2.094-8.675 2.413-.26.032-.05-.403-.165-1.344l-.007-.004c-5.993 9.779-13.385 18.974-24.887 18.565-5.402 5.077-16.706 9.174-24.336 7.925-6.17-1.009-13.871-3.879-18.32-8.368l-.929.01v-.024c-5.417-.482-12.816-1.14-23.478-18.078l.012-.007-.024-.04c-.118.962.104 1.4-.166 1.366-2.615-.322-5.56-.686-8.62-2.386l.005-.01c-8.404-4.667-17.979-21.05-18.252-21.267-2.722-.95-6.327-2.25-9.97-7.53-9.273-13.412-11.95-21.303-21.434-33.837l-5.138-12.051a4512.154 4512.154 0 0 1-11.355-28.779l-2.895-14.448a.409.409 0 0 0 .044-.327l-3.59-12.305a.412.412 0 0 0-.272-.278c-1.32-18.654-1.617-50.857-.866-66.511.572-11.828.214-26.825-.204-42.343a.41.41 0 0 0 .14-.328l-.608-12.658a.413.413 0 0 0-.191-.327l-.042-13.86.007-.002-.081-10.961c.007-3.44.047-6.752.125-9.886-.177-7.194-9.711-14.084-8.947-26.015.814-12.703 27.158-31.647 38.498-35.002l.001.007c5.007-1.533 7.61-2.622 10.046-4.106.118.12.303.161.465.087l14.291-6.602a.41.41 0 0 0 .227-.272c2.093.146 3.98-5.723 7.113-7.154l3.286-1.472v.006c2.084-.764 4.13-1.435 6.046-2.062 5.714-1.873 9.889-3.241 11.298-6.62 2.6-6.252 5.958-9.142 8.078-10.967 1.126-3.753 1.534-7.989 1.298-11.89-.237-3.134.647-6.178 2.436-8.493a.411.411 0 0 0 .493.124l17.944-8.076a.41.41 0 0 0 .04-.726c5.096-3.784 10.786-4.847 17.038-4.847v.021c6.299-.143 12.233 1.683 16.539 4.963.073.164.27.25.469.25.033.032.07.06.115.08l17.24 8.076a.408.408 0 0 0 .372-.013z"/><path class="fil7" d="M1087.19 916.326c2.24.769 4.573 1.624 6.907 2.628 2.48 2.086 5.945 1.996 7.902 4.175.028.116.125.193.225.273l8.974 7.276 1.925 1.547a.41.41 0 0 0 .573-.06c2.24 1.359 5.247 2.703 10.023 4.115 11.353 3.34 37.668 22.243 38.495 34.98.454 6.879-2.279 11.603-5.115 16.505-1.756 3.037-3.574 6.177-3.833 9.55.125 5.618-.135 23.389-.303 34.652a.412.412 0 0 0-.13.292l-.191 12.947a.407.407 0 0 0 .054.21c-.433 15.478-.784 30.433-.213 42.224.725 15.098-1.693 49.58-3.09 66.058l.206.05a.41.41 0 0 0-.414.358l-1.667 12.69a.41.41 0 0 0 .263.436l-2.86 14.278-.019-.005c-1.332 5.897-5.699 10.762-5.81 11.315-1.491 7.694-4.884 21.86-10.703 29.522-2.036 2.677-4.089 3.57-5.98 4.154-3.576 8.796-9.197 20.68-15.417 29.68l-.006-.003c-4.292 6.385-9.558 7.214-9.953 7.53-.236.189-9.828 16.504-18.206 21.252-1.9 1.08-3.833 1.63-5.65 1.97-29.141-83.15-47.24-195.253-47.24-308.104 0-25.468 24.039-48.056 61.253-62.495zM976.061 1287.13c-2.139-.315-4.45-.83-6.83-2.15l.006-.01c-8.404-4.668-17.98-21.051-18.252-21.268-2.722-.95-6.327-2.25-9.97-7.53-9.274-13.412-11.95-21.303-21.434-33.837l-5.138-12.051a4512.154 4512.154 0 0 1-11.355-28.779l-2.895-14.448a.409.409 0 0 0 .044-.327l-3.59-12.305a.412.412 0 0 0-.273-.278c-1.32-18.654-1.617-50.857-.865-66.511.571-11.828.213-26.825-.205-42.343a.41.41 0 0 0 .14-.328l-.607-12.658a.413.413 0 0 0-.192-.327l-.041-13.86.007-.002-.082-10.961c.008-3.44.048-6.752.126-9.886-.178-7.194-9.711-14.084-8.947-26.015.814-12.703 27.158-31.647 38.498-35.002l.001.007c5.007-1.533 7.61-2.622 10.045-4.106.118.12.304.161.466.087l14.291-6.602a.41.41 0 0 0 .227-.272c2.093.146 3.979-5.723 7.112-7.154l3.286-1.472.001.006c.629-.23 1.252-.451 1.87-.666 37.566 14.428 61.869 37.127 61.869 62.735 0 112.945-18.128 225.141-47.313 308.313z"/><path class="fil4" d="M1061.57 885.213"/><path d="M1063.23 898.109c.389 1.011-.314-.879-.317-.967l-.007.008c.1.319.198.616.297.89l.027.069z" style="fill:#424242;fill-rule:nonzero"/><path class="fil9" d="M1052.25 993.109a6.563 6.563 0 0 0-9.28 0 6.563 6.563 0 0 0 0 9.28l61.78 52.5-52.5-61.78zM992.733 1073.14a6.542 6.542 0 0 1 11.228 6.716l-48.348 67.881 37.12-74.597zM1053.23 1073.14a6.543 6.543 0 0 0-11.229 6.716l48.348 67.881-37.119-74.597zM983.35 1165.94a6.545 6.545 0 1 1 12.15 4.87l-34.76 69.265 22.61-74.135zM1064.66 1165.94a6.545 6.545 0 0 0-12.151 4.87l34.76 69.265-22.609-74.135zM993.707 993.109a6.563 6.563 0 0 1 9.28 0 6.563 6.563 0 0 1 0 9.28l-61.781 52.5 52.501-61.78z"/><path style="fill:#824e21" d="M919.576 1222.34"/></g></svg>