<svg version="1.1" id="Layer_1" xmlns="http://www.w3.org/2000/svg" x="0" y="0" viewBox="0 0 256 256" style="enable-background:new 0 0 256 256" xml:space="preserve"><style>.st5{fill:#fff}.st7{fill:#40c4df}.st8{fill:#491352}.st9{fill:#56c1b3}</style><path d="M229.54 60.02v124.4H26.46V60.02c0-8.87 6.64-16.2 15.23-17.26.71-.09 1.44-.14 2.17-.14h168.28c9.61 0 17.4 7.79 17.4 17.4z" style="fill:#1c868e"/><path class="st7" d="M229.54 60.02v124.4H41.69V42.76c.71-.09 1.44-.14 2.17-.14h168.28c9.61 0 17.4 7.79 17.4 17.4z"/><path class="st9" d="M251.6 190.49v4.67c0 10.06-8.15 18.22-18.21 18.22H22.61c-10.06 0-18.21-8.16-18.21-18.22v-4.67c0-3.35 2.72-6.07 6.07-6.07h235.06c3.35 0 6.07 2.72 6.07 6.07z"/><path d="M251.6 190.49v4.67c0 10.06-8.15 18.22-18.21 18.22H37.84c-10.06 0-18.21-8.16-18.21-18.22v-4.67c0-3.35 2.72-6.07 6.07-6.07h219.83c3.35 0 6.07 2.72 6.07 6.07z" style="fill:#7befe4"/><path class="st9" d="M156.13 184.42v5.111c0 5.172-4.201 9.373-9.373 9.373h-37.515c-5.172 0-9.373-4.201-9.373-9.373v-5.111h56.261z"/><path d="M218.75 58.42v126H37.25v-126c0-2.57 1.94-4.69 4.44-4.96.18-.03.37-.04.56-.04h171.5c2.76 0 5 2.24 5 5z" style="fill:#d8d6d7"/><path class="st5" d="M218.75 58.42v126H52.48v-131h161.27c2.76 0 5 2.24 5 5z"/><path class="st7" d="M229.54 60.02v124.4h-10.79v-126c0-2.76-2.24-5-5-5H42.25c-.19 0-.38.01-.56.04v-10.7c.71-.09 1.44-.14 2.17-.14h168.28c9.61 0 17.4 7.79 17.4 17.4z"/><g><path d="M189.132 171.016H66.868a5 5 0 0 1-5-5V71.818a5 5 0 0 1 5-5h122.263a5 5 0 0 1 5 5v94.198a4.998 4.998 0 0 1-4.999 5z" style="fill:#f85252"/><path class="st7" d="M189.132 171.016H66.868a5 5 0 0 1-5-5V71.818a5 5 0 0 1 5-5h29.779l13.661 16.972a5 5 0 0 0 3.895 1.865h79.928v80.361a4.998 4.998 0 0 1-4.999 5z"/><circle class="st5" cx="169.415" cy="76.401" r="3.693"/><circle class="st5" cx="182.932" cy="76.401" r="3.693"/></g><g><path class="st5" d="M85.299 141.972a3.78 3.78 0 0 1-2.681-1.11l-9.984-9.984a3.787 3.787 0 0 1 0-5.362l10.379-10.378a3.792 3.792 0 1 1 5.361 5.362l-7.697 7.697 7.303 7.303a3.79 3.79 0 0 1-2.681 6.472zM170.307 141.972a3.79 3.79 0 0 1-2.681-6.472l7.697-7.697-7.302-7.303a3.79 3.79 0 1 1 5.361-5.362l9.983 9.984a3.79 3.79 0 0 1 0 5.362l-10.378 10.378c-.74.74-1.71 1.11-2.68 1.11zM135.937 131.791H99.902a3.791 3.791 0 0 1 0-7.582h36.035a3.791 3.791 0 0 1 0 7.582zM148.42 141.359a3.79 3.79 0 0 1-3.563-5.089l6.964-19.134a3.79 3.79 0 1 1 7.125 2.593l-6.964 19.134a3.79 3.79 0 0 1-3.562 2.496z"/></g><g><path class="st8" d="M245.534 182.42h-13.989V60.024c0-10.697-8.703-19.399-19.4-19.399H43.855c-10.697 0-19.4 8.703-19.4 19.399V182.42H10.466c-4.45 0-8.07 3.62-8.07 8.07v4.674c0 11.145 9.066 20.211 20.211 20.211h210.787c11.145 0 20.211-9.066 20.211-20.211v-4.674c-.001-4.45-3.621-8.07-8.071-8.07zM28.455 60.024c0-8.491 6.908-15.399 15.4-15.399h168.289c8.492 0 15.4 6.908 15.4 15.399V182.42h-6.795V58.417c0-3.86-3.141-7-7-7H42.25c-3.859 0-7 3.14-7 7V182.42h-6.795V60.024zM101.87 186.42h52.26v3.112c0 4.065-3.307 7.373-7.372 7.373h-37.516c-4.065 0-7.372-3.307-7.372-7.373v-3.112zm114.88-4.003H39.25v-124c0-1.654 1.346-3 3-3h171.5c1.654 0 3 1.346 3 3v124zm32.854 12.748c0 8.939-7.272 16.211-16.211 16.211H22.606c-8.938 0-16.211-7.272-16.211-16.211v-4.674a4.075 4.075 0 0 1 4.07-4.07h87.404v3.112c0 6.271 5.102 11.373 11.372 11.373h37.516c6.271 0 11.372-5.102 11.372-11.373v-3.112h87.404a4.075 4.075 0 0 1 4.07 4.07v4.674z"/><path class="st8" d="M189.132 64.818H66.868c-3.859 0-7 3.14-7 7v94.198c0 3.86 3.141 7 7 7h122.264c3.859 0 7-3.14 7-7V71.818c0-3.86-3.141-7-7-7zm3 7v11.837h-77.928a2.988 2.988 0 0 1-2.338-1.119l-11.042-13.718h88.308c1.654 0 3 1.346 3 3zm0 94.198c0 1.654-1.346 3-3 3H66.868c-1.654 0-3-1.346-3-3V71.818c0-1.654 1.346-3 3-3h28.821l13.062 16.226a6.968 6.968 0 0 0 5.453 2.611h77.928v78.361z"/><path class="st8" d="M94.786 78.651a2 2 0 0 0-2-2H74.289a2 2 0 0 0 0 4h18.497a2 2 0 0 0 2-2zM169.415 82.094c3.14 0 5.693-2.554 5.693-5.693s-2.554-5.693-5.693-5.693-5.692 2.554-5.692 5.693 2.553 5.693 5.692 5.693zm0-7.386c.934 0 1.693.759 1.693 1.693s-.76 1.693-1.693 1.693a1.694 1.694 0 0 1 0-3.386zM182.932 82.094c3.14 0 5.693-2.554 5.693-5.693s-2.554-5.693-5.693-5.693-5.692 2.554-5.692 5.693 2.553 5.693 5.692 5.693zm0-7.386c.934 0 1.693.759 1.693 1.693s-.76 1.693-1.693 1.693a1.694 1.694 0 0 1 0-3.386zM89.789 113.723a5.788 5.788 0 0 0-8.189 0l-10.379 10.378c-2.233 2.231-2.29 5.903 0 8.19l9.983 9.983a5.787 5.787 0 0 0 8.19.001 5.798 5.798 0 0 0 0-8.19l-5.89-5.889 6.284-6.283a5.797 5.797 0 0 0 .001-8.19zm-2.828 5.362-7.698 7.697a2 2 0 0 0 0 2.829l7.304 7.303a1.795 1.795 0 0 1 0 2.534c-.678.676-1.857.677-2.533 0l-9.984-9.984a1.792 1.792 0 0 1 0-2.533l10.379-10.378a1.792 1.792 0 0 1 2.533 0 1.793 1.793 0 0 1-.001 2.532zM166.212 142.276a5.787 5.787 0 0 0 8.189 0l10.378-10.378a5.785 5.785 0 0 0 0-8.19l-9.983-9.984a5.788 5.788 0 0 0-8.189 0 5.798 5.798 0 0 0 0 8.19l5.889 5.889-6.283 6.283a5.784 5.784 0 0 0-.001 8.19zm2.828-5.362 7.697-7.697a2 2 0 0 0 0-2.828l-7.303-7.303a1.792 1.792 0 0 1 2.533-2.534l9.983 9.984c.7.699.703 1.831 0 2.533l-10.378 10.378c-.678.676-1.855.676-2.533 0-.701-.7-.7-1.832.001-2.533zM94.111 128a5.799 5.799 0 0 0 5.791 5.792h36.035c3.193 0 5.791-2.598 5.791-5.792s-2.598-5.792-5.791-5.792H99.902A5.799 5.799 0 0 0 94.111 128zm43.618 0c0 .988-.804 1.792-1.791 1.792H99.902c-.987 0-1.791-.804-1.791-1.792s.804-1.792 1.791-1.792h36.035c.988 0 1.792.804 1.792 1.792zM146.439 143.009c3.038 1.104 6.344-.494 7.422-3.461l6.966-19.134a5.8 5.8 0 0 0-3.462-7.422 5.787 5.787 0 0 0-7.422 3.461l-6.966 19.134a5.8 5.8 0 0 0 3.462 7.422zm.297-6.055 6.966-19.135a1.79 1.79 0 0 1 2.295-1.069 1.795 1.795 0 0 1 1.071 2.296l-6.966 19.135c-.326.9-1.373 1.405-2.294 1.07a1.797 1.797 0 0 1-1.072-2.297z"/></g></svg>